M48
; DRILL file {KiCad (5.1.4-0-10_14)} date Sunday, 17 November 2019 at 16:04:31
; FORMAT={-:-/ absolute / inch / decimal}
; #@! TF.CreationDate,2019-11-17T16:04:31+00:00
; #@! TF.GenerationSoftware,Kicad,Pcbnew,(5.1.4-0-10_14)
FMAT,2
INCH
T1C0.0236
T2C0.0315
T3C0.0354
T4C0.0394
T5C0.0433
T6C0.0866
%
G90
G05
T1
X4.1339Y-3.8543
X4.1929Y-3.8543
X4.1339Y-3.6614
X4.1929Y-3.6614
T2
X5.2008Y-3.5906
X5.3976Y-3.5906
X5.2008Y-3.3976
X5.3976Y-3.3976
X4.2236Y-3.0583
X4.2236Y-3.1583
X4.2236Y-3.2583
X4.2236Y-3.3583
X4.5236Y-3.0583
X4.5236Y-3.1583
X4.5236Y-3.2583
X3.6276Y-2.8583
X4.0276Y-2.8583
X4.5236Y-3.3583
X4.4764Y-3.6614
X4.4764Y-3.8535
X3.5315Y-3.3465
X3.5315Y-3.5433
X5.1945Y-4.1614
X5.5945Y-4.1614
X4.1535Y-4.1575
X5.0205Y-3.6583
X4.7205Y-2.8583
X4.7205Y-2.9583
X5.5748Y-3.3937
X5.5748Y-3.5906
X5.2047Y-2.8583
X4.7205Y-3.0583
X4.7205Y-3.1583
X4.7205Y-3.2583
X5.2047Y-2.9583
X5.2047Y-3.0583
X5.2047Y-3.1583
X5.5047Y-2.8583
X5.5047Y-2.9583
X5.5047Y-3.0583
X5.5047Y-3.1583
X4.7205Y-3.3583
X4.7205Y-3.4583
X4.7205Y-3.5583
X4.7205Y-3.6583
X4.7205Y-3.7583
X4.7205Y-3.8583
X4.7205Y-4.1583
X5.0205Y-2.8583
X5.0205Y-3.4583
X5.0205Y-3.5583
X5.0205Y-3.7583
X5.0205Y-3.8583
X5.0205Y-3.9583
X4.5535Y-4.1575
X3.2165Y-3.3465
X3.2165Y-3.5433
X4.7205Y-3.9583
X4.7205Y-4.0583
X5.0205Y-2.9583
X5.0205Y-3.0583
X5.0205Y-3.1583
X5.0205Y-3.2583
X5.0205Y-3.3583
X5.0205Y-4.0583
X5.0205Y-4.1583
T3
X3.8976Y-4.1575
X3.9976Y-4.1575
T4
X5.3622Y-3.7756
X5.4622Y-3.7756
X5.4622Y-3.9756
X3.7874Y-3.0583
X3.7874Y-3.1583
X3.7874Y-3.2583
X3.7874Y-3.3583
X3.7835Y-3.5827
X5.3622Y-3.8756
X5.4622Y-3.8756
X3.7835Y-3.6827
X5.3622Y-3.9756
X3.7835Y-3.7827
X3.7835Y-3.8827
T5
X4.252Y-2.6811
X4.252Y-2.8583
X3.2717Y-3.126
X3.3717Y-3.126
X3.4717Y-3.126
X4.5079Y-2.6811
X4.5079Y-2.8583
T6
X5.6772Y-2.622
X3.1732Y-2.622
X3.1732Y-4.2441
T0
M30
