G04 #@! TF.GenerationSoftware,KiCad,Pcbnew,(5.1.4-0-10_14)*
G04 #@! TF.CreationDate,2019-11-17T16:04:33+00:00*
G04 #@! TF.ProjectId,SELE_ACS,53454c45-5f41-4435-932e-6b696361645f,rev?*
G04 #@! TF.SameCoordinates,Original*
G04 #@! TF.FileFunction,Copper,L2,Bot*
G04 #@! TF.FilePolarity,Positive*
%FSLAX46Y46*%
G04 Gerber Fmt 4.6, Leading zero omitted, Abs format (unit mm)*
G04 Created by KiCad (PCBNEW (5.1.4-0-10_14)) date 2019-11-17 16:04:33*
%MOMM*%
%LPD*%
G04 APERTURE LIST*
%ADD10C,4.400000*%
%ADD11O,1.700000X1.700000*%
%ADD12R,1.700000X1.700000*%
%ADD13O,1.600000X1.600000*%
%ADD14C,1.600000*%
%ADD15R,1.600000X1.600000*%
%ADD16C,1.700000*%
%ADD17C,1.800000*%
%ADD18R,1.800000X1.800000*%
%ADD19R,1.200000X1.200000*%
%ADD20C,1.200000*%
%ADD21C,1.500000*%
%ADD22O,1.905000X2.000000*%
%ADD23R,1.905000X2.000000*%
%ADD24C,1.905000*%
%ADD25C,2.000000*%
%ADD26C,0.300000*%
G04 APERTURE END LIST*
D10*
X80600000Y-107800000D03*
X80600000Y-66600000D03*
X144200000Y-66600000D03*
D11*
X96200000Y-77680000D03*
X96200000Y-80220000D03*
X96200000Y-82760000D03*
D12*
X96200000Y-85300000D03*
D13*
X92140000Y-72600000D03*
D14*
X102300000Y-72600000D03*
D13*
X127520000Y-72600000D03*
X119900000Y-105620000D03*
X127520000Y-75140000D03*
X119900000Y-103080000D03*
X127520000Y-77680000D03*
X119900000Y-100540000D03*
X127520000Y-80220000D03*
X119900000Y-98000000D03*
X127520000Y-82760000D03*
X119900000Y-95460000D03*
X127520000Y-85300000D03*
X119900000Y-92920000D03*
X127520000Y-87840000D03*
X119900000Y-90380000D03*
X127520000Y-90380000D03*
X119900000Y-87840000D03*
X127520000Y-92920000D03*
X119900000Y-85300000D03*
X127520000Y-95460000D03*
X119900000Y-82760000D03*
X127520000Y-98000000D03*
X119900000Y-80220000D03*
X127520000Y-100540000D03*
X119900000Y-77680000D03*
X127520000Y-103080000D03*
X119900000Y-75140000D03*
X127520000Y-105620000D03*
D15*
X119900000Y-72600000D03*
D13*
X131940000Y-105700000D03*
D14*
X142100000Y-105700000D03*
D13*
X115660000Y-105600000D03*
D14*
X105500000Y-105600000D03*
D12*
X96100000Y-98620000D03*
D11*
X96100000Y-96080000D03*
X96100000Y-93540000D03*
D16*
X96100000Y-91000000D03*
D12*
X138740000Y-100980000D03*
D11*
X136200000Y-100980000D03*
X138740000Y-98440000D03*
X136200000Y-98440000D03*
X138740000Y-95900000D03*
D16*
X136200000Y-95900000D03*
D17*
X101540000Y-105600000D03*
D18*
X99000000Y-105600000D03*
D14*
X89700000Y-90000000D03*
X89700000Y-85000000D03*
X81700000Y-90000000D03*
X81700000Y-85000000D03*
X141600000Y-91200000D03*
X141600000Y-86200000D03*
X137100000Y-91200000D03*
X132100000Y-91200000D03*
X137100000Y-86300000D03*
X132100000Y-86300000D03*
D19*
X105000000Y-97900000D03*
D20*
X106500000Y-97900000D03*
D19*
X105000000Y-93000000D03*
D20*
X106500000Y-93000000D03*
D21*
X113700000Y-97880000D03*
X113700000Y-93000000D03*
D22*
X88180000Y-79400000D03*
D23*
X85640000Y-79400000D03*
D24*
X83100000Y-79400000D03*
D13*
X107280000Y-85300000D03*
X114900000Y-77680000D03*
X107280000Y-82760000D03*
X114900000Y-80220000D03*
X107280000Y-80220000D03*
X114900000Y-82760000D03*
D15*
X107280000Y-77680000D03*
D14*
X114900000Y-85300000D03*
D15*
X139820000Y-72600000D03*
D13*
X132200000Y-80220000D03*
X139820000Y-75140000D03*
X132200000Y-77680000D03*
X139820000Y-77680000D03*
X132200000Y-75140000D03*
X139820000Y-80220000D03*
D14*
X132200000Y-72600000D03*
D25*
X108000000Y-72600000D03*
X108000000Y-68100000D03*
X114500000Y-72600000D03*
X114500000Y-68100000D03*
D26*
X96200000Y-77680000D02*
X97049999Y-76830001D01*
X97049999Y-76830001D02*
X97069999Y-76830001D01*
X97069999Y-76830001D02*
X98000000Y-75900000D01*
X113120000Y-75900000D02*
X114900000Y-77680000D01*
X98000000Y-75900000D02*
X113120000Y-75900000D01*
X94997919Y-80220000D02*
X93900000Y-81317919D01*
X96200000Y-80220000D02*
X94997919Y-80220000D01*
X93900000Y-81317919D02*
X93900000Y-86000000D01*
X93900000Y-86000000D02*
X95000000Y-87100000D01*
X113800000Y-85300000D02*
X114900000Y-85300000D01*
X112000000Y-87100000D02*
X113800000Y-85300000D01*
X95000000Y-87100000D02*
X112000000Y-87100000D01*
X104740000Y-82760000D02*
X107280000Y-85300000D01*
X96200000Y-82760000D02*
X104740000Y-82760000D01*
X123800000Y-73600000D02*
X122800000Y-72600000D01*
X123800000Y-106200000D02*
X123800000Y-73600000D01*
X125300000Y-107700000D02*
X123800000Y-106200000D01*
X122800000Y-72600000D02*
X119900000Y-72600000D01*
X129940000Y-107700000D02*
X125300000Y-107700000D01*
X131940000Y-105700000D02*
X129940000Y-107700000D01*
X141600000Y-101500000D02*
X141600000Y-91200000D01*
X140600000Y-102500000D02*
X141600000Y-101500000D01*
X137720000Y-102500000D02*
X140600000Y-102500000D01*
X136200000Y-100980000D02*
X137720000Y-102500000D01*
X130500000Y-98440000D02*
X127520000Y-95460000D01*
X136200000Y-98440000D02*
X130500000Y-98440000D01*
M02*
