G04 #@! TF.GenerationSoftware,KiCad,Pcbnew,(5.1.4-0-10_14)*
G04 #@! TF.CreationDate,2019-11-17T16:04:34+00:00*
G04 #@! TF.ProjectId,SELE_ACS,53454c45-5f41-4435-932e-6b696361645f,rev?*
G04 #@! TF.SameCoordinates,Original*
G04 #@! TF.FileFunction,Soldermask,Bot*
G04 #@! TF.FilePolarity,Negative*
%FSLAX46Y46*%
G04 Gerber Fmt 4.6, Leading zero omitted, Abs format (unit mm)*
G04 Created by KiCad (PCBNEW (5.1.4-0-10_14)) date 2019-11-17 16:04:34*
%MOMM*%
%LPD*%
G04 APERTURE LIST*
%ADD10C,0.100000*%
G04 APERTURE END LIST*
D10*
G36*
X80875880Y-105559776D02*
G01*
X81256593Y-105635504D01*
X81666249Y-105805189D01*
X82034929Y-106051534D01*
X82348466Y-106365071D01*
X82594811Y-106733751D01*
X82764496Y-107143407D01*
X82851000Y-107578296D01*
X82851000Y-108021704D01*
X82764496Y-108456593D01*
X82594811Y-108866249D01*
X82348466Y-109234929D01*
X82034929Y-109548466D01*
X81666249Y-109794811D01*
X81256593Y-109964496D01*
X80875880Y-110040224D01*
X80821705Y-110051000D01*
X80378295Y-110051000D01*
X80324120Y-110040224D01*
X79943407Y-109964496D01*
X79533751Y-109794811D01*
X79165071Y-109548466D01*
X78851534Y-109234929D01*
X78605189Y-108866249D01*
X78435504Y-108456593D01*
X78349000Y-108021704D01*
X78349000Y-107578296D01*
X78435504Y-107143407D01*
X78605189Y-106733751D01*
X78851534Y-106365071D01*
X79165071Y-106051534D01*
X79533751Y-105805189D01*
X79943407Y-105635504D01*
X80324120Y-105559776D01*
X80378295Y-105549000D01*
X80821705Y-105549000D01*
X80875880Y-105559776D01*
X80875880Y-105559776D01*
G37*
G36*
X132106823Y-104861313D02*
G01*
X132237380Y-104900917D01*
X132264012Y-104908996D01*
X132267242Y-104909976D01*
X132334361Y-104945852D01*
X132415078Y-104988996D01*
X132544659Y-105095341D01*
X132651004Y-105224922D01*
X132651005Y-105224924D01*
X132730024Y-105372758D01*
X132778687Y-105533177D01*
X132795117Y-105700000D01*
X132778687Y-105866823D01*
X132730024Y-106027242D01*
X132689477Y-106103100D01*
X132651004Y-106175078D01*
X132544659Y-106304659D01*
X132415078Y-106411004D01*
X132415076Y-106411005D01*
X132267242Y-106490024D01*
X132106823Y-106538687D01*
X131981804Y-106551000D01*
X131898196Y-106551000D01*
X131773177Y-106538687D01*
X131612758Y-106490024D01*
X131464924Y-106411005D01*
X131464922Y-106411004D01*
X131335341Y-106304659D01*
X131228996Y-106175078D01*
X131190523Y-106103100D01*
X131149976Y-106027242D01*
X131101313Y-105866823D01*
X131084883Y-105700000D01*
X131101313Y-105533177D01*
X131149976Y-105372758D01*
X131228995Y-105224924D01*
X131228996Y-105224922D01*
X131335341Y-105095341D01*
X131464922Y-104988996D01*
X131545639Y-104945852D01*
X131612758Y-104909976D01*
X131615989Y-104908996D01*
X131642620Y-104900917D01*
X131773177Y-104861313D01*
X131898196Y-104849000D01*
X131981804Y-104849000D01*
X132106823Y-104861313D01*
X132106823Y-104861313D01*
G37*
G36*
X101817395Y-104685546D02*
G01*
X101990466Y-104757234D01*
X102026504Y-104781314D01*
X102146227Y-104861310D01*
X102278690Y-104993773D01*
X102321284Y-105057520D01*
X102382766Y-105149534D01*
X102454454Y-105322605D01*
X102491000Y-105506333D01*
X102491000Y-105693667D01*
X102454454Y-105877395D01*
X102382766Y-106050466D01*
X102352957Y-106095078D01*
X102278690Y-106206227D01*
X102146227Y-106338690D01*
X102123092Y-106354148D01*
X101990466Y-106442766D01*
X101817395Y-106514454D01*
X101633667Y-106551000D01*
X101446333Y-106551000D01*
X101262605Y-106514454D01*
X101089534Y-106442766D01*
X100956908Y-106354148D01*
X100933773Y-106338690D01*
X100801310Y-106206227D01*
X100727043Y-106095078D01*
X100697234Y-106050466D01*
X100625546Y-105877395D01*
X100589000Y-105693667D01*
X100589000Y-105506333D01*
X100625546Y-105322605D01*
X100697234Y-105149534D01*
X100758716Y-105057520D01*
X100801310Y-104993773D01*
X100933773Y-104861310D01*
X101053496Y-104781314D01*
X101089534Y-104757234D01*
X101262605Y-104685546D01*
X101446333Y-104649000D01*
X101633667Y-104649000D01*
X101817395Y-104685546D01*
X101817395Y-104685546D01*
G37*
G36*
X99951000Y-106551000D02*
G01*
X98049000Y-106551000D01*
X98049000Y-104649000D01*
X99951000Y-104649000D01*
X99951000Y-106551000D01*
X99951000Y-106551000D01*
G37*
G36*
X142348228Y-104881703D02*
G01*
X142503100Y-104945853D01*
X142642481Y-105038985D01*
X142761015Y-105157519D01*
X142854147Y-105296900D01*
X142918297Y-105451772D01*
X142951000Y-105616184D01*
X142951000Y-105783816D01*
X142918297Y-105948228D01*
X142854147Y-106103100D01*
X142761015Y-106242481D01*
X142642481Y-106361015D01*
X142503100Y-106454147D01*
X142348228Y-106518297D01*
X142183816Y-106551000D01*
X142016184Y-106551000D01*
X141851772Y-106518297D01*
X141696900Y-106454147D01*
X141557519Y-106361015D01*
X141438985Y-106242481D01*
X141345853Y-106103100D01*
X141281703Y-105948228D01*
X141249000Y-105783816D01*
X141249000Y-105616184D01*
X141281703Y-105451772D01*
X141345853Y-105296900D01*
X141438985Y-105157519D01*
X141557519Y-105038985D01*
X141696900Y-104945853D01*
X141851772Y-104881703D01*
X142016184Y-104849000D01*
X142183816Y-104849000D01*
X142348228Y-104881703D01*
X142348228Y-104881703D01*
G37*
G36*
X127686823Y-104781313D02*
G01*
X127847242Y-104829976D01*
X127979906Y-104900886D01*
X127995078Y-104908996D01*
X128124659Y-105015341D01*
X128231004Y-105144922D01*
X128231005Y-105144924D01*
X128310024Y-105292758D01*
X128310025Y-105292761D01*
X128311281Y-105296903D01*
X128358687Y-105453177D01*
X128375117Y-105620000D01*
X128358687Y-105786823D01*
X128310024Y-105947242D01*
X128254849Y-106050467D01*
X128231004Y-106095078D01*
X128124659Y-106224659D01*
X127995078Y-106331004D01*
X127995076Y-106331005D01*
X127847242Y-106410024D01*
X127847239Y-106410025D01*
X127844008Y-106411005D01*
X127686823Y-106458687D01*
X127561804Y-106471000D01*
X127478196Y-106471000D01*
X127353177Y-106458687D01*
X127195992Y-106411005D01*
X127192761Y-106410025D01*
X127192758Y-106410024D01*
X127044924Y-106331005D01*
X127044922Y-106331004D01*
X126915341Y-106224659D01*
X126808996Y-106095078D01*
X126785151Y-106050467D01*
X126729976Y-105947242D01*
X126681313Y-105786823D01*
X126664883Y-105620000D01*
X126681313Y-105453177D01*
X126728719Y-105296903D01*
X126729975Y-105292761D01*
X126729976Y-105292758D01*
X126808995Y-105144924D01*
X126808996Y-105144922D01*
X126915341Y-105015341D01*
X127044922Y-104908996D01*
X127060094Y-104900886D01*
X127192758Y-104829976D01*
X127353177Y-104781313D01*
X127478196Y-104769000D01*
X127561804Y-104769000D01*
X127686823Y-104781313D01*
X127686823Y-104781313D01*
G37*
G36*
X120066823Y-104781313D02*
G01*
X120227242Y-104829976D01*
X120359906Y-104900886D01*
X120375078Y-104908996D01*
X120504659Y-105015341D01*
X120611004Y-105144922D01*
X120611005Y-105144924D01*
X120690024Y-105292758D01*
X120690025Y-105292761D01*
X120691281Y-105296903D01*
X120738687Y-105453177D01*
X120755117Y-105620000D01*
X120738687Y-105786823D01*
X120690024Y-105947242D01*
X120634849Y-106050467D01*
X120611004Y-106095078D01*
X120504659Y-106224659D01*
X120375078Y-106331004D01*
X120375076Y-106331005D01*
X120227242Y-106410024D01*
X120227239Y-106410025D01*
X120224008Y-106411005D01*
X120066823Y-106458687D01*
X119941804Y-106471000D01*
X119858196Y-106471000D01*
X119733177Y-106458687D01*
X119575992Y-106411005D01*
X119572761Y-106410025D01*
X119572758Y-106410024D01*
X119424924Y-106331005D01*
X119424922Y-106331004D01*
X119295341Y-106224659D01*
X119188996Y-106095078D01*
X119165151Y-106050467D01*
X119109976Y-105947242D01*
X119061313Y-105786823D01*
X119044883Y-105620000D01*
X119061313Y-105453177D01*
X119108719Y-105296903D01*
X119109975Y-105292761D01*
X119109976Y-105292758D01*
X119188995Y-105144924D01*
X119188996Y-105144922D01*
X119295341Y-105015341D01*
X119424922Y-104908996D01*
X119440094Y-104900886D01*
X119572758Y-104829976D01*
X119733177Y-104781313D01*
X119858196Y-104769000D01*
X119941804Y-104769000D01*
X120066823Y-104781313D01*
X120066823Y-104781313D01*
G37*
G36*
X115826823Y-104761313D02*
G01*
X115987242Y-104809976D01*
X116119906Y-104880886D01*
X116135078Y-104888996D01*
X116264659Y-104995341D01*
X116371004Y-105124922D01*
X116371005Y-105124924D01*
X116450024Y-105272758D01*
X116498687Y-105433177D01*
X116515117Y-105600000D01*
X116498687Y-105766823D01*
X116450024Y-105927242D01*
X116409477Y-106003100D01*
X116371004Y-106075078D01*
X116264659Y-106204659D01*
X116135078Y-106311004D01*
X116135076Y-106311005D01*
X115987242Y-106390024D01*
X115826823Y-106438687D01*
X115701804Y-106451000D01*
X115618196Y-106451000D01*
X115493177Y-106438687D01*
X115332758Y-106390024D01*
X115184924Y-106311005D01*
X115184922Y-106311004D01*
X115055341Y-106204659D01*
X114948996Y-106075078D01*
X114910523Y-106003100D01*
X114869976Y-105927242D01*
X114821313Y-105766823D01*
X114804883Y-105600000D01*
X114821313Y-105433177D01*
X114869976Y-105272758D01*
X114948995Y-105124924D01*
X114948996Y-105124922D01*
X115055341Y-104995341D01*
X115184922Y-104888996D01*
X115200094Y-104880886D01*
X115332758Y-104809976D01*
X115493177Y-104761313D01*
X115618196Y-104749000D01*
X115701804Y-104749000D01*
X115826823Y-104761313D01*
X115826823Y-104761313D01*
G37*
G36*
X105748228Y-104781703D02*
G01*
X105903100Y-104845853D01*
X106042481Y-104938985D01*
X106161015Y-105057519D01*
X106254147Y-105196900D01*
X106318297Y-105351772D01*
X106351000Y-105516184D01*
X106351000Y-105683816D01*
X106318297Y-105848228D01*
X106254147Y-106003100D01*
X106161015Y-106142481D01*
X106042481Y-106261015D01*
X105903100Y-106354147D01*
X105748228Y-106418297D01*
X105583816Y-106451000D01*
X105416184Y-106451000D01*
X105251772Y-106418297D01*
X105096900Y-106354147D01*
X104957519Y-106261015D01*
X104838985Y-106142481D01*
X104745853Y-106003100D01*
X104681703Y-105848228D01*
X104649000Y-105683816D01*
X104649000Y-105516184D01*
X104681703Y-105351772D01*
X104745853Y-105196900D01*
X104838985Y-105057519D01*
X104957519Y-104938985D01*
X105096900Y-104845853D01*
X105251772Y-104781703D01*
X105416184Y-104749000D01*
X105583816Y-104749000D01*
X105748228Y-104781703D01*
X105748228Y-104781703D01*
G37*
G36*
X127686823Y-102241313D02*
G01*
X127847242Y-102289976D01*
X127979906Y-102360886D01*
X127995078Y-102368996D01*
X128124659Y-102475341D01*
X128231004Y-102604922D01*
X128231005Y-102604924D01*
X128310024Y-102752758D01*
X128358687Y-102913177D01*
X128375117Y-103080000D01*
X128358687Y-103246823D01*
X128310024Y-103407242D01*
X128239114Y-103539906D01*
X128231004Y-103555078D01*
X128124659Y-103684659D01*
X127995078Y-103791004D01*
X127995076Y-103791005D01*
X127847242Y-103870024D01*
X127686823Y-103918687D01*
X127561804Y-103931000D01*
X127478196Y-103931000D01*
X127353177Y-103918687D01*
X127192758Y-103870024D01*
X127044924Y-103791005D01*
X127044922Y-103791004D01*
X126915341Y-103684659D01*
X126808996Y-103555078D01*
X126800886Y-103539906D01*
X126729976Y-103407242D01*
X126681313Y-103246823D01*
X126664883Y-103080000D01*
X126681313Y-102913177D01*
X126729976Y-102752758D01*
X126808995Y-102604924D01*
X126808996Y-102604922D01*
X126915341Y-102475341D01*
X127044922Y-102368996D01*
X127060094Y-102360886D01*
X127192758Y-102289976D01*
X127353177Y-102241313D01*
X127478196Y-102229000D01*
X127561804Y-102229000D01*
X127686823Y-102241313D01*
X127686823Y-102241313D01*
G37*
G36*
X120066823Y-102241313D02*
G01*
X120227242Y-102289976D01*
X120359906Y-102360886D01*
X120375078Y-102368996D01*
X120504659Y-102475341D01*
X120611004Y-102604922D01*
X120611005Y-102604924D01*
X120690024Y-102752758D01*
X120738687Y-102913177D01*
X120755117Y-103080000D01*
X120738687Y-103246823D01*
X120690024Y-103407242D01*
X120619114Y-103539906D01*
X120611004Y-103555078D01*
X120504659Y-103684659D01*
X120375078Y-103791004D01*
X120375076Y-103791005D01*
X120227242Y-103870024D01*
X120066823Y-103918687D01*
X119941804Y-103931000D01*
X119858196Y-103931000D01*
X119733177Y-103918687D01*
X119572758Y-103870024D01*
X119424924Y-103791005D01*
X119424922Y-103791004D01*
X119295341Y-103684659D01*
X119188996Y-103555078D01*
X119180886Y-103539906D01*
X119109976Y-103407242D01*
X119061313Y-103246823D01*
X119044883Y-103080000D01*
X119061313Y-102913177D01*
X119109976Y-102752758D01*
X119188995Y-102604924D01*
X119188996Y-102604922D01*
X119295341Y-102475341D01*
X119424922Y-102368996D01*
X119440094Y-102360886D01*
X119572758Y-102289976D01*
X119733177Y-102241313D01*
X119858196Y-102229000D01*
X119941804Y-102229000D01*
X120066823Y-102241313D01*
X120066823Y-102241313D01*
G37*
G36*
X139641000Y-101881000D02*
G01*
X137839000Y-101881000D01*
X137839000Y-100079000D01*
X139641000Y-100079000D01*
X139641000Y-101881000D01*
X139641000Y-101881000D01*
G37*
G36*
X136310442Y-100085518D02*
G01*
X136376627Y-100092037D01*
X136546466Y-100143557D01*
X136702991Y-100227222D01*
X136738729Y-100256552D01*
X136840186Y-100339814D01*
X136923448Y-100441271D01*
X136952778Y-100477009D01*
X137036443Y-100633534D01*
X137087963Y-100803373D01*
X137105359Y-100980000D01*
X137087963Y-101156627D01*
X137036443Y-101326466D01*
X136952778Y-101482991D01*
X136923448Y-101518729D01*
X136840186Y-101620186D01*
X136738729Y-101703448D01*
X136702991Y-101732778D01*
X136546466Y-101816443D01*
X136376627Y-101867963D01*
X136310442Y-101874482D01*
X136244260Y-101881000D01*
X136155740Y-101881000D01*
X136089558Y-101874482D01*
X136023373Y-101867963D01*
X135853534Y-101816443D01*
X135697009Y-101732778D01*
X135661271Y-101703448D01*
X135559814Y-101620186D01*
X135476552Y-101518729D01*
X135447222Y-101482991D01*
X135363557Y-101326466D01*
X135312037Y-101156627D01*
X135294641Y-100980000D01*
X135312037Y-100803373D01*
X135363557Y-100633534D01*
X135447222Y-100477009D01*
X135476552Y-100441271D01*
X135559814Y-100339814D01*
X135661271Y-100256552D01*
X135697009Y-100227222D01*
X135853534Y-100143557D01*
X136023373Y-100092037D01*
X136089557Y-100085519D01*
X136155740Y-100079000D01*
X136244260Y-100079000D01*
X136310442Y-100085518D01*
X136310442Y-100085518D01*
G37*
G36*
X127686823Y-99701313D02*
G01*
X127847242Y-99749976D01*
X127979906Y-99820886D01*
X127995078Y-99828996D01*
X128124659Y-99935341D01*
X128231004Y-100064922D01*
X128231005Y-100064924D01*
X128310024Y-100212758D01*
X128358687Y-100373177D01*
X128375117Y-100540000D01*
X128358687Y-100706823D01*
X128310024Y-100867242D01*
X128239114Y-100999906D01*
X128231004Y-101015078D01*
X128124659Y-101144659D01*
X127995078Y-101251004D01*
X127995076Y-101251005D01*
X127847242Y-101330024D01*
X127686823Y-101378687D01*
X127561804Y-101391000D01*
X127478196Y-101391000D01*
X127353177Y-101378687D01*
X127192758Y-101330024D01*
X127044924Y-101251005D01*
X127044922Y-101251004D01*
X126915341Y-101144659D01*
X126808996Y-101015078D01*
X126800886Y-100999906D01*
X126729976Y-100867242D01*
X126681313Y-100706823D01*
X126664883Y-100540000D01*
X126681313Y-100373177D01*
X126729976Y-100212758D01*
X126808995Y-100064924D01*
X126808996Y-100064922D01*
X126915341Y-99935341D01*
X127044922Y-99828996D01*
X127060094Y-99820886D01*
X127192758Y-99749976D01*
X127353177Y-99701313D01*
X127478196Y-99689000D01*
X127561804Y-99689000D01*
X127686823Y-99701313D01*
X127686823Y-99701313D01*
G37*
G36*
X120066823Y-99701313D02*
G01*
X120227242Y-99749976D01*
X120359906Y-99820886D01*
X120375078Y-99828996D01*
X120504659Y-99935341D01*
X120611004Y-100064922D01*
X120611005Y-100064924D01*
X120690024Y-100212758D01*
X120738687Y-100373177D01*
X120755117Y-100540000D01*
X120738687Y-100706823D01*
X120690024Y-100867242D01*
X120619114Y-100999906D01*
X120611004Y-101015078D01*
X120504659Y-101144659D01*
X120375078Y-101251004D01*
X120375076Y-101251005D01*
X120227242Y-101330024D01*
X120066823Y-101378687D01*
X119941804Y-101391000D01*
X119858196Y-101391000D01*
X119733177Y-101378687D01*
X119572758Y-101330024D01*
X119424924Y-101251005D01*
X119424922Y-101251004D01*
X119295341Y-101144659D01*
X119188996Y-101015078D01*
X119180886Y-100999906D01*
X119109976Y-100867242D01*
X119061313Y-100706823D01*
X119044883Y-100540000D01*
X119061313Y-100373177D01*
X119109976Y-100212758D01*
X119188995Y-100064924D01*
X119188996Y-100064922D01*
X119295341Y-99935341D01*
X119424922Y-99828996D01*
X119440094Y-99820886D01*
X119572758Y-99749976D01*
X119733177Y-99701313D01*
X119858196Y-99689000D01*
X119941804Y-99689000D01*
X120066823Y-99701313D01*
X120066823Y-99701313D01*
G37*
G36*
X97001000Y-99521000D02*
G01*
X95199000Y-99521000D01*
X95199000Y-97719000D01*
X97001000Y-97719000D01*
X97001000Y-99521000D01*
X97001000Y-99521000D01*
G37*
G36*
X138850443Y-97545519D02*
G01*
X138916627Y-97552037D01*
X139086466Y-97603557D01*
X139242991Y-97687222D01*
X139268914Y-97708497D01*
X139380186Y-97799814D01*
X139463448Y-97901271D01*
X139492778Y-97937009D01*
X139576443Y-98093534D01*
X139627963Y-98263373D01*
X139645359Y-98440000D01*
X139627963Y-98616627D01*
X139576443Y-98786466D01*
X139492778Y-98942991D01*
X139463448Y-98978729D01*
X139380186Y-99080186D01*
X139278729Y-99163448D01*
X139242991Y-99192778D01*
X139086466Y-99276443D01*
X138916627Y-99327963D01*
X138850442Y-99334482D01*
X138784260Y-99341000D01*
X138695740Y-99341000D01*
X138629557Y-99334481D01*
X138563373Y-99327963D01*
X138393534Y-99276443D01*
X138237009Y-99192778D01*
X138201271Y-99163448D01*
X138099814Y-99080186D01*
X138016552Y-98978729D01*
X137987222Y-98942991D01*
X137903557Y-98786466D01*
X137852037Y-98616627D01*
X137834641Y-98440000D01*
X137852037Y-98263373D01*
X137903557Y-98093534D01*
X137987222Y-97937009D01*
X138016552Y-97901271D01*
X138099814Y-97799814D01*
X138211086Y-97708497D01*
X138237009Y-97687222D01*
X138393534Y-97603557D01*
X138563373Y-97552037D01*
X138629557Y-97545519D01*
X138695740Y-97539000D01*
X138784260Y-97539000D01*
X138850443Y-97545519D01*
X138850443Y-97545519D01*
G37*
G36*
X136310443Y-97545519D02*
G01*
X136376627Y-97552037D01*
X136546466Y-97603557D01*
X136702991Y-97687222D01*
X136728914Y-97708497D01*
X136840186Y-97799814D01*
X136923448Y-97901271D01*
X136952778Y-97937009D01*
X137036443Y-98093534D01*
X137087963Y-98263373D01*
X137105359Y-98440000D01*
X137087963Y-98616627D01*
X137036443Y-98786466D01*
X136952778Y-98942991D01*
X136923448Y-98978729D01*
X136840186Y-99080186D01*
X136738729Y-99163448D01*
X136702991Y-99192778D01*
X136546466Y-99276443D01*
X136376627Y-99327963D01*
X136310442Y-99334482D01*
X136244260Y-99341000D01*
X136155740Y-99341000D01*
X136089557Y-99334481D01*
X136023373Y-99327963D01*
X135853534Y-99276443D01*
X135697009Y-99192778D01*
X135661271Y-99163448D01*
X135559814Y-99080186D01*
X135476552Y-98978729D01*
X135447222Y-98942991D01*
X135363557Y-98786466D01*
X135312037Y-98616627D01*
X135294641Y-98440000D01*
X135312037Y-98263373D01*
X135363557Y-98093534D01*
X135447222Y-97937009D01*
X135476552Y-97901271D01*
X135559814Y-97799814D01*
X135671086Y-97708497D01*
X135697009Y-97687222D01*
X135853534Y-97603557D01*
X136023373Y-97552037D01*
X136089557Y-97545519D01*
X136155740Y-97539000D01*
X136244260Y-97539000D01*
X136310443Y-97545519D01*
X136310443Y-97545519D01*
G37*
G36*
X127686823Y-97161313D02*
G01*
X127847242Y-97209976D01*
X127936755Y-97257822D01*
X127995078Y-97288996D01*
X128124659Y-97395341D01*
X128231004Y-97524922D01*
X128231005Y-97524924D01*
X128310024Y-97672758D01*
X128358687Y-97833177D01*
X128375117Y-98000000D01*
X128358687Y-98166823D01*
X128310024Y-98327242D01*
X128239114Y-98459906D01*
X128231004Y-98475078D01*
X128124659Y-98604659D01*
X127995078Y-98711004D01*
X127995076Y-98711005D01*
X127847242Y-98790024D01*
X127686823Y-98838687D01*
X127561804Y-98851000D01*
X127478196Y-98851000D01*
X127353177Y-98838687D01*
X127192758Y-98790024D01*
X127044924Y-98711005D01*
X127044922Y-98711004D01*
X126915341Y-98604659D01*
X126808996Y-98475078D01*
X126800886Y-98459906D01*
X126729976Y-98327242D01*
X126681313Y-98166823D01*
X126664883Y-98000000D01*
X126681313Y-97833177D01*
X126729976Y-97672758D01*
X126808995Y-97524924D01*
X126808996Y-97524922D01*
X126915341Y-97395341D01*
X127044922Y-97288996D01*
X127103245Y-97257822D01*
X127192758Y-97209976D01*
X127353177Y-97161313D01*
X127478196Y-97149000D01*
X127561804Y-97149000D01*
X127686823Y-97161313D01*
X127686823Y-97161313D01*
G37*
G36*
X120066823Y-97161313D02*
G01*
X120227242Y-97209976D01*
X120316755Y-97257822D01*
X120375078Y-97288996D01*
X120504659Y-97395341D01*
X120611004Y-97524922D01*
X120611005Y-97524924D01*
X120690024Y-97672758D01*
X120738687Y-97833177D01*
X120755117Y-98000000D01*
X120738687Y-98166823D01*
X120690024Y-98327242D01*
X120619114Y-98459906D01*
X120611004Y-98475078D01*
X120504659Y-98604659D01*
X120375078Y-98711004D01*
X120375076Y-98711005D01*
X120227242Y-98790024D01*
X120066823Y-98838687D01*
X119941804Y-98851000D01*
X119858196Y-98851000D01*
X119733177Y-98838687D01*
X119572758Y-98790024D01*
X119424924Y-98711005D01*
X119424922Y-98711004D01*
X119295341Y-98604659D01*
X119188996Y-98475078D01*
X119180886Y-98459906D01*
X119109976Y-98327242D01*
X119061313Y-98166823D01*
X119044883Y-98000000D01*
X119061313Y-97833177D01*
X119109976Y-97672758D01*
X119188995Y-97524924D01*
X119188996Y-97524922D01*
X119295341Y-97395341D01*
X119424922Y-97288996D01*
X119483245Y-97257822D01*
X119572758Y-97209976D01*
X119733177Y-97161313D01*
X119858196Y-97149000D01*
X119941804Y-97149000D01*
X120066823Y-97161313D01*
X120066823Y-97161313D01*
G37*
G36*
X113933642Y-97109781D02*
G01*
X114058053Y-97161314D01*
X114079416Y-97170163D01*
X114210608Y-97257822D01*
X114322178Y-97369392D01*
X114338844Y-97394335D01*
X114409838Y-97500586D01*
X114470219Y-97646358D01*
X114501000Y-97801107D01*
X114501000Y-97958893D01*
X114470219Y-98113642D01*
X114409838Y-98259414D01*
X114409837Y-98259416D01*
X114322178Y-98390608D01*
X114210608Y-98502178D01*
X114079416Y-98589837D01*
X114079415Y-98589838D01*
X114079414Y-98589838D01*
X113933642Y-98650219D01*
X113778893Y-98681000D01*
X113621107Y-98681000D01*
X113466358Y-98650219D01*
X113320586Y-98589838D01*
X113320585Y-98589838D01*
X113320584Y-98589837D01*
X113189392Y-98502178D01*
X113077822Y-98390608D01*
X112990163Y-98259416D01*
X112990162Y-98259414D01*
X112929781Y-98113642D01*
X112899000Y-97958893D01*
X112899000Y-97801107D01*
X112929781Y-97646358D01*
X112990162Y-97500586D01*
X113061156Y-97394335D01*
X113077822Y-97369392D01*
X113189392Y-97257822D01*
X113320584Y-97170163D01*
X113341947Y-97161314D01*
X113466358Y-97109781D01*
X113621107Y-97079000D01*
X113778893Y-97079000D01*
X113933642Y-97109781D01*
X113933642Y-97109781D01*
G37*
G36*
X105651000Y-97620109D02*
G01*
X105653402Y-97644495D01*
X105660515Y-97667944D01*
X105672066Y-97689555D01*
X105687611Y-97708497D01*
X105706553Y-97724042D01*
X105728164Y-97735593D01*
X105751613Y-97742706D01*
X105775999Y-97745108D01*
X105800385Y-97742706D01*
X105823834Y-97735593D01*
X105845445Y-97724042D01*
X105864387Y-97708497D01*
X105879932Y-97689555D01*
X105891483Y-97667944D01*
X105923090Y-97591638D01*
X105994335Y-97485012D01*
X106085012Y-97394335D01*
X106122342Y-97369392D01*
X106191636Y-97323091D01*
X106310110Y-97274017D01*
X106435881Y-97249000D01*
X106564119Y-97249000D01*
X106689890Y-97274017D01*
X106808364Y-97323091D01*
X106914988Y-97394335D01*
X107005665Y-97485012D01*
X107076909Y-97591636D01*
X107125983Y-97710110D01*
X107151000Y-97835882D01*
X107151000Y-97964118D01*
X107125983Y-98089890D01*
X107076909Y-98208364D01*
X107005665Y-98314988D01*
X106914988Y-98405665D01*
X106808364Y-98476909D01*
X106808363Y-98476910D01*
X106808362Y-98476910D01*
X106689890Y-98525983D01*
X106564119Y-98551000D01*
X106435881Y-98551000D01*
X106310110Y-98525983D01*
X106191638Y-98476910D01*
X106191637Y-98476910D01*
X106191636Y-98476909D01*
X106085012Y-98405665D01*
X105994335Y-98314988D01*
X105923091Y-98208364D01*
X105891483Y-98132055D01*
X105879932Y-98110445D01*
X105864387Y-98091503D01*
X105845445Y-98075958D01*
X105823834Y-98064407D01*
X105800385Y-98057294D01*
X105775999Y-98054892D01*
X105751613Y-98057294D01*
X105728164Y-98064407D01*
X105706553Y-98075958D01*
X105687611Y-98091503D01*
X105672066Y-98110445D01*
X105660515Y-98132056D01*
X105653402Y-98155505D01*
X105651000Y-98179891D01*
X105651000Y-98551000D01*
X104349000Y-98551000D01*
X104349000Y-97249000D01*
X105651000Y-97249000D01*
X105651000Y-97620109D01*
X105651000Y-97620109D01*
G37*
G36*
X96210442Y-95185518D02*
G01*
X96276627Y-95192037D01*
X96446466Y-95243557D01*
X96446468Y-95243558D01*
X96476882Y-95259815D01*
X96602991Y-95327222D01*
X96638729Y-95356552D01*
X96740186Y-95439814D01*
X96823448Y-95541271D01*
X96852778Y-95577009D01*
X96936443Y-95733534D01*
X96987963Y-95903373D01*
X97005359Y-96080000D01*
X96987963Y-96256627D01*
X96936443Y-96426466D01*
X96852778Y-96582991D01*
X96823448Y-96618729D01*
X96740186Y-96720186D01*
X96683902Y-96766376D01*
X96602991Y-96832778D01*
X96446466Y-96916443D01*
X96276627Y-96967963D01*
X96210442Y-96974482D01*
X96144260Y-96981000D01*
X96055740Y-96981000D01*
X95989558Y-96974482D01*
X95923373Y-96967963D01*
X95753534Y-96916443D01*
X95597009Y-96832778D01*
X95516098Y-96766376D01*
X95459814Y-96720186D01*
X95376552Y-96618729D01*
X95347222Y-96582991D01*
X95263557Y-96426466D01*
X95212037Y-96256627D01*
X95194641Y-96080000D01*
X95212037Y-95903373D01*
X95263557Y-95733534D01*
X95347222Y-95577009D01*
X95376552Y-95541271D01*
X95459814Y-95439814D01*
X95561271Y-95356552D01*
X95597009Y-95327222D01*
X95723118Y-95259815D01*
X95753532Y-95243558D01*
X95753534Y-95243557D01*
X95923373Y-95192037D01*
X95989558Y-95185518D01*
X96055740Y-95179000D01*
X96144260Y-95179000D01*
X96210442Y-95185518D01*
X96210442Y-95185518D01*
G37*
G36*
X138850442Y-95005518D02*
G01*
X138916627Y-95012037D01*
X139086466Y-95063557D01*
X139242991Y-95147222D01*
X139278729Y-95176552D01*
X139380186Y-95259814D01*
X139435505Y-95327222D01*
X139492778Y-95397009D01*
X139576443Y-95553534D01*
X139627963Y-95723373D01*
X139645359Y-95900000D01*
X139627963Y-96076627D01*
X139576443Y-96246466D01*
X139492778Y-96402991D01*
X139473512Y-96426466D01*
X139380186Y-96540186D01*
X139307480Y-96599853D01*
X139242991Y-96652778D01*
X139242989Y-96652779D01*
X139116881Y-96720186D01*
X139086466Y-96736443D01*
X138916627Y-96787963D01*
X138850443Y-96794481D01*
X138784260Y-96801000D01*
X138695740Y-96801000D01*
X138629557Y-96794481D01*
X138563373Y-96787963D01*
X138393534Y-96736443D01*
X138363120Y-96720186D01*
X138237011Y-96652779D01*
X138237009Y-96652778D01*
X138172520Y-96599853D01*
X138099814Y-96540186D01*
X138006488Y-96426466D01*
X137987222Y-96402991D01*
X137903557Y-96246466D01*
X137852037Y-96076627D01*
X137834641Y-95900000D01*
X137852037Y-95723373D01*
X137903557Y-95553534D01*
X137987222Y-95397009D01*
X138044495Y-95327222D01*
X138099814Y-95259814D01*
X138201271Y-95176552D01*
X138237009Y-95147222D01*
X138393534Y-95063557D01*
X138563373Y-95012037D01*
X138629557Y-95005519D01*
X138695740Y-94999000D01*
X138784260Y-94999000D01*
X138850442Y-95005518D01*
X138850442Y-95005518D01*
G37*
G36*
X136313512Y-95003927D02*
G01*
X136462812Y-95033624D01*
X136626784Y-95101544D01*
X136774354Y-95200147D01*
X136899853Y-95325646D01*
X136998456Y-95473216D01*
X137066376Y-95637188D01*
X137101000Y-95811259D01*
X137101000Y-95988741D01*
X137066376Y-96162812D01*
X136998456Y-96326784D01*
X136899853Y-96474354D01*
X136774354Y-96599853D01*
X136626784Y-96698456D01*
X136462812Y-96766376D01*
X136313512Y-96796073D01*
X136288742Y-96801000D01*
X136111258Y-96801000D01*
X136086488Y-96796073D01*
X135937188Y-96766376D01*
X135773216Y-96698456D01*
X135625646Y-96599853D01*
X135500147Y-96474354D01*
X135401544Y-96326784D01*
X135333624Y-96162812D01*
X135299000Y-95988741D01*
X135299000Y-95811259D01*
X135333624Y-95637188D01*
X135401544Y-95473216D01*
X135500147Y-95325646D01*
X135625646Y-95200147D01*
X135773216Y-95101544D01*
X135937188Y-95033624D01*
X136086488Y-95003927D01*
X136111258Y-94999000D01*
X136288742Y-94999000D01*
X136313512Y-95003927D01*
X136313512Y-95003927D01*
G37*
G36*
X127686823Y-94621313D02*
G01*
X127847242Y-94669976D01*
X127979906Y-94740886D01*
X127995078Y-94748996D01*
X128124659Y-94855341D01*
X128231004Y-94984922D01*
X128231005Y-94984924D01*
X128310024Y-95132758D01*
X128358687Y-95293177D01*
X128375117Y-95460000D01*
X128358687Y-95626823D01*
X128310024Y-95787242D01*
X128239114Y-95919906D01*
X128231004Y-95935078D01*
X128124659Y-96064659D01*
X127995078Y-96171004D01*
X127995076Y-96171005D01*
X127847242Y-96250024D01*
X127686823Y-96298687D01*
X127561804Y-96311000D01*
X127478196Y-96311000D01*
X127353177Y-96298687D01*
X127192758Y-96250024D01*
X127044924Y-96171005D01*
X127044922Y-96171004D01*
X126915341Y-96064659D01*
X126808996Y-95935078D01*
X126800886Y-95919906D01*
X126729976Y-95787242D01*
X126681313Y-95626823D01*
X126664883Y-95460000D01*
X126681313Y-95293177D01*
X126729976Y-95132758D01*
X126808995Y-94984924D01*
X126808996Y-94984922D01*
X126915341Y-94855341D01*
X127044922Y-94748996D01*
X127060094Y-94740886D01*
X127192758Y-94669976D01*
X127353177Y-94621313D01*
X127478196Y-94609000D01*
X127561804Y-94609000D01*
X127686823Y-94621313D01*
X127686823Y-94621313D01*
G37*
G36*
X120066823Y-94621313D02*
G01*
X120227242Y-94669976D01*
X120359906Y-94740886D01*
X120375078Y-94748996D01*
X120504659Y-94855341D01*
X120611004Y-94984922D01*
X120611005Y-94984924D01*
X120690024Y-95132758D01*
X120738687Y-95293177D01*
X120755117Y-95460000D01*
X120738687Y-95626823D01*
X120690024Y-95787242D01*
X120619114Y-95919906D01*
X120611004Y-95935078D01*
X120504659Y-96064659D01*
X120375078Y-96171004D01*
X120375076Y-96171005D01*
X120227242Y-96250024D01*
X120066823Y-96298687D01*
X119941804Y-96311000D01*
X119858196Y-96311000D01*
X119733177Y-96298687D01*
X119572758Y-96250024D01*
X119424924Y-96171005D01*
X119424922Y-96171004D01*
X119295341Y-96064659D01*
X119188996Y-95935078D01*
X119180886Y-95919906D01*
X119109976Y-95787242D01*
X119061313Y-95626823D01*
X119044883Y-95460000D01*
X119061313Y-95293177D01*
X119109976Y-95132758D01*
X119188995Y-94984924D01*
X119188996Y-94984922D01*
X119295341Y-94855341D01*
X119424922Y-94748996D01*
X119440094Y-94740886D01*
X119572758Y-94669976D01*
X119733177Y-94621313D01*
X119858196Y-94609000D01*
X119941804Y-94609000D01*
X120066823Y-94621313D01*
X120066823Y-94621313D01*
G37*
G36*
X96210442Y-92645518D02*
G01*
X96276627Y-92652037D01*
X96446466Y-92703557D01*
X96602991Y-92787222D01*
X96628914Y-92808497D01*
X96740186Y-92899814D01*
X96823448Y-93001271D01*
X96852778Y-93037009D01*
X96936443Y-93193534D01*
X96987963Y-93363373D01*
X97005359Y-93540000D01*
X96987963Y-93716627D01*
X96936443Y-93886466D01*
X96852778Y-94042991D01*
X96823448Y-94078729D01*
X96740186Y-94180186D01*
X96638729Y-94263448D01*
X96602991Y-94292778D01*
X96446466Y-94376443D01*
X96276627Y-94427963D01*
X96210443Y-94434481D01*
X96144260Y-94441000D01*
X96055740Y-94441000D01*
X95989557Y-94434481D01*
X95923373Y-94427963D01*
X95753534Y-94376443D01*
X95597009Y-94292778D01*
X95561271Y-94263448D01*
X95459814Y-94180186D01*
X95376552Y-94078729D01*
X95347222Y-94042991D01*
X95263557Y-93886466D01*
X95212037Y-93716627D01*
X95194641Y-93540000D01*
X95212037Y-93363373D01*
X95263557Y-93193534D01*
X95347222Y-93037009D01*
X95376552Y-93001271D01*
X95459814Y-92899814D01*
X95571086Y-92808497D01*
X95597009Y-92787222D01*
X95753534Y-92703557D01*
X95923373Y-92652037D01*
X95989558Y-92645518D01*
X96055740Y-92639000D01*
X96144260Y-92639000D01*
X96210442Y-92645518D01*
X96210442Y-92645518D01*
G37*
G36*
X113933642Y-92229781D02*
G01*
X114079414Y-92290162D01*
X114079416Y-92290163D01*
X114210608Y-92377822D01*
X114322178Y-92489392D01*
X114391244Y-92592758D01*
X114409838Y-92620586D01*
X114470219Y-92766358D01*
X114501000Y-92921107D01*
X114501000Y-93078893D01*
X114470219Y-93233642D01*
X114409838Y-93379414D01*
X114409837Y-93379416D01*
X114322178Y-93510608D01*
X114210608Y-93622178D01*
X114079416Y-93709837D01*
X114079415Y-93709838D01*
X114079414Y-93709838D01*
X113933642Y-93770219D01*
X113778893Y-93801000D01*
X113621107Y-93801000D01*
X113466358Y-93770219D01*
X113320586Y-93709838D01*
X113320585Y-93709838D01*
X113320584Y-93709837D01*
X113189392Y-93622178D01*
X113077822Y-93510608D01*
X112990163Y-93379416D01*
X112990162Y-93379414D01*
X112929781Y-93233642D01*
X112899000Y-93078893D01*
X112899000Y-92921107D01*
X112929781Y-92766358D01*
X112990162Y-92620586D01*
X113008756Y-92592758D01*
X113077822Y-92489392D01*
X113189392Y-92377822D01*
X113320584Y-92290163D01*
X113320586Y-92290162D01*
X113466358Y-92229781D01*
X113621107Y-92199000D01*
X113778893Y-92199000D01*
X113933642Y-92229781D01*
X113933642Y-92229781D01*
G37*
G36*
X127686823Y-92081313D02*
G01*
X127847242Y-92129976D01*
X127976377Y-92199000D01*
X127995078Y-92208996D01*
X128124659Y-92315341D01*
X128231004Y-92444922D01*
X128231005Y-92444924D01*
X128310024Y-92592758D01*
X128358687Y-92753177D01*
X128375117Y-92920000D01*
X128358687Y-93086823D01*
X128310024Y-93247242D01*
X128239377Y-93379414D01*
X128231004Y-93395078D01*
X128124659Y-93524659D01*
X127995078Y-93631004D01*
X127995076Y-93631005D01*
X127847242Y-93710024D01*
X127686823Y-93758687D01*
X127561804Y-93771000D01*
X127478196Y-93771000D01*
X127353177Y-93758687D01*
X127192758Y-93710024D01*
X127044924Y-93631005D01*
X127044922Y-93631004D01*
X126915341Y-93524659D01*
X126808996Y-93395078D01*
X126800623Y-93379414D01*
X126729976Y-93247242D01*
X126681313Y-93086823D01*
X126664883Y-92920000D01*
X126681313Y-92753177D01*
X126729976Y-92592758D01*
X126808995Y-92444924D01*
X126808996Y-92444922D01*
X126915341Y-92315341D01*
X127044922Y-92208996D01*
X127063623Y-92199000D01*
X127192758Y-92129976D01*
X127353177Y-92081313D01*
X127478196Y-92069000D01*
X127561804Y-92069000D01*
X127686823Y-92081313D01*
X127686823Y-92081313D01*
G37*
G36*
X120066823Y-92081313D02*
G01*
X120227242Y-92129976D01*
X120356377Y-92199000D01*
X120375078Y-92208996D01*
X120504659Y-92315341D01*
X120611004Y-92444922D01*
X120611005Y-92444924D01*
X120690024Y-92592758D01*
X120738687Y-92753177D01*
X120755117Y-92920000D01*
X120738687Y-93086823D01*
X120690024Y-93247242D01*
X120619377Y-93379414D01*
X120611004Y-93395078D01*
X120504659Y-93524659D01*
X120375078Y-93631004D01*
X120375076Y-93631005D01*
X120227242Y-93710024D01*
X120066823Y-93758687D01*
X119941804Y-93771000D01*
X119858196Y-93771000D01*
X119733177Y-93758687D01*
X119572758Y-93710024D01*
X119424924Y-93631005D01*
X119424922Y-93631004D01*
X119295341Y-93524659D01*
X119188996Y-93395078D01*
X119180623Y-93379414D01*
X119109976Y-93247242D01*
X119061313Y-93086823D01*
X119044883Y-92920000D01*
X119061313Y-92753177D01*
X119109976Y-92592758D01*
X119188995Y-92444924D01*
X119188996Y-92444922D01*
X119295341Y-92315341D01*
X119424922Y-92208996D01*
X119443623Y-92199000D01*
X119572758Y-92129976D01*
X119733177Y-92081313D01*
X119858196Y-92069000D01*
X119941804Y-92069000D01*
X120066823Y-92081313D01*
X120066823Y-92081313D01*
G37*
G36*
X105651000Y-92720109D02*
G01*
X105653402Y-92744495D01*
X105660515Y-92767944D01*
X105672066Y-92789555D01*
X105687611Y-92808497D01*
X105706553Y-92824042D01*
X105728164Y-92835593D01*
X105751613Y-92842706D01*
X105775999Y-92845108D01*
X105800385Y-92842706D01*
X105823834Y-92835593D01*
X105845445Y-92824042D01*
X105864387Y-92808497D01*
X105879932Y-92789555D01*
X105891483Y-92767944D01*
X105897601Y-92753175D01*
X105923091Y-92691636D01*
X105994335Y-92585012D01*
X106085012Y-92494335D01*
X106191636Y-92423091D01*
X106310110Y-92374017D01*
X106435881Y-92349000D01*
X106564119Y-92349000D01*
X106689890Y-92374017D01*
X106808364Y-92423091D01*
X106841036Y-92444922D01*
X106914988Y-92494335D01*
X107005665Y-92585012D01*
X107076910Y-92691638D01*
X107125983Y-92810110D01*
X107151000Y-92935881D01*
X107151000Y-93064119D01*
X107132944Y-93154892D01*
X107125983Y-93189890D01*
X107076909Y-93308364D01*
X107005665Y-93414988D01*
X106914988Y-93505665D01*
X106808364Y-93576909D01*
X106808363Y-93576910D01*
X106808362Y-93576910D01*
X106689890Y-93625983D01*
X106564119Y-93651000D01*
X106435881Y-93651000D01*
X106310110Y-93625983D01*
X106191638Y-93576910D01*
X106191637Y-93576910D01*
X106191636Y-93576909D01*
X106085012Y-93505665D01*
X105994335Y-93414988D01*
X105923091Y-93308364D01*
X105891483Y-93232055D01*
X105879932Y-93210445D01*
X105864387Y-93191503D01*
X105845445Y-93175958D01*
X105823834Y-93164407D01*
X105800385Y-93157294D01*
X105775999Y-93154892D01*
X105751613Y-93157294D01*
X105728164Y-93164407D01*
X105706553Y-93175958D01*
X105687611Y-93191503D01*
X105672066Y-93210445D01*
X105660515Y-93232056D01*
X105653402Y-93255505D01*
X105651000Y-93279891D01*
X105651000Y-93651000D01*
X104349000Y-93651000D01*
X104349000Y-92349000D01*
X105651000Y-92349000D01*
X105651000Y-92720109D01*
X105651000Y-92720109D01*
G37*
G36*
X132348228Y-90381703D02*
G01*
X132503100Y-90445853D01*
X132642481Y-90538985D01*
X132761015Y-90657519D01*
X132854147Y-90796900D01*
X132918297Y-90951772D01*
X132951000Y-91116184D01*
X132951000Y-91283816D01*
X132918297Y-91448228D01*
X132854147Y-91603100D01*
X132761015Y-91742481D01*
X132642481Y-91861015D01*
X132503100Y-91954147D01*
X132348228Y-92018297D01*
X132183816Y-92051000D01*
X132016184Y-92051000D01*
X131851772Y-92018297D01*
X131696900Y-91954147D01*
X131557519Y-91861015D01*
X131438985Y-91742481D01*
X131345853Y-91603100D01*
X131281703Y-91448228D01*
X131249000Y-91283816D01*
X131249000Y-91116184D01*
X131281703Y-90951772D01*
X131345853Y-90796900D01*
X131438985Y-90657519D01*
X131557519Y-90538985D01*
X131696900Y-90445853D01*
X131851772Y-90381703D01*
X132016184Y-90349000D01*
X132183816Y-90349000D01*
X132348228Y-90381703D01*
X132348228Y-90381703D01*
G37*
G36*
X137348228Y-90381703D02*
G01*
X137503100Y-90445853D01*
X137642481Y-90538985D01*
X137761015Y-90657519D01*
X137854147Y-90796900D01*
X137918297Y-90951772D01*
X137951000Y-91116184D01*
X137951000Y-91283816D01*
X137918297Y-91448228D01*
X137854147Y-91603100D01*
X137761015Y-91742481D01*
X137642481Y-91861015D01*
X137503100Y-91954147D01*
X137348228Y-92018297D01*
X137183816Y-92051000D01*
X137016184Y-92051000D01*
X136851772Y-92018297D01*
X136696900Y-91954147D01*
X136557519Y-91861015D01*
X136438985Y-91742481D01*
X136345853Y-91603100D01*
X136281703Y-91448228D01*
X136249000Y-91283816D01*
X136249000Y-91116184D01*
X136281703Y-90951772D01*
X136345853Y-90796900D01*
X136438985Y-90657519D01*
X136557519Y-90538985D01*
X136696900Y-90445853D01*
X136851772Y-90381703D01*
X137016184Y-90349000D01*
X137183816Y-90349000D01*
X137348228Y-90381703D01*
X137348228Y-90381703D01*
G37*
G36*
X141848228Y-90381703D02*
G01*
X142003100Y-90445853D01*
X142142481Y-90538985D01*
X142261015Y-90657519D01*
X142354147Y-90796900D01*
X142418297Y-90951772D01*
X142451000Y-91116184D01*
X142451000Y-91283816D01*
X142418297Y-91448228D01*
X142354147Y-91603100D01*
X142261015Y-91742481D01*
X142142481Y-91861015D01*
X142003100Y-91954147D01*
X141848228Y-92018297D01*
X141683816Y-92051000D01*
X141516184Y-92051000D01*
X141351772Y-92018297D01*
X141196900Y-91954147D01*
X141057519Y-91861015D01*
X140938985Y-91742481D01*
X140845853Y-91603100D01*
X140781703Y-91448228D01*
X140749000Y-91283816D01*
X140749000Y-91116184D01*
X140781703Y-90951772D01*
X140845853Y-90796900D01*
X140938985Y-90657519D01*
X141057519Y-90538985D01*
X141196900Y-90445853D01*
X141351772Y-90381703D01*
X141516184Y-90349000D01*
X141683816Y-90349000D01*
X141848228Y-90381703D01*
X141848228Y-90381703D01*
G37*
G36*
X96213512Y-90103927D02*
G01*
X96362812Y-90133624D01*
X96526784Y-90201544D01*
X96674354Y-90300147D01*
X96799853Y-90425646D01*
X96898456Y-90573216D01*
X96966376Y-90737188D01*
X97001000Y-90911259D01*
X97001000Y-91088741D01*
X96966376Y-91262812D01*
X96898456Y-91426784D01*
X96799853Y-91574354D01*
X96674354Y-91699853D01*
X96526784Y-91798456D01*
X96362812Y-91866376D01*
X96213512Y-91896073D01*
X96188742Y-91901000D01*
X96011258Y-91901000D01*
X95986488Y-91896073D01*
X95837188Y-91866376D01*
X95673216Y-91798456D01*
X95525646Y-91699853D01*
X95400147Y-91574354D01*
X95301544Y-91426784D01*
X95233624Y-91262812D01*
X95199000Y-91088741D01*
X95199000Y-90911259D01*
X95233624Y-90737188D01*
X95301544Y-90573216D01*
X95400147Y-90425646D01*
X95525646Y-90300147D01*
X95673216Y-90201544D01*
X95837188Y-90133624D01*
X95986488Y-90103927D01*
X96011258Y-90099000D01*
X96188742Y-90099000D01*
X96213512Y-90103927D01*
X96213512Y-90103927D01*
G37*
G36*
X120066823Y-89541313D02*
G01*
X120227242Y-89589976D01*
X120359906Y-89660886D01*
X120375078Y-89668996D01*
X120504659Y-89775341D01*
X120611004Y-89904922D01*
X120611005Y-89904924D01*
X120690024Y-90052758D01*
X120738687Y-90213177D01*
X120755117Y-90380000D01*
X120738687Y-90546823D01*
X120690024Y-90707242D01*
X120664952Y-90754148D01*
X120611004Y-90855078D01*
X120504659Y-90984659D01*
X120375078Y-91091004D01*
X120375076Y-91091005D01*
X120227242Y-91170024D01*
X120066823Y-91218687D01*
X119941804Y-91231000D01*
X119858196Y-91231000D01*
X119733177Y-91218687D01*
X119572758Y-91170024D01*
X119424924Y-91091005D01*
X119424922Y-91091004D01*
X119295341Y-90984659D01*
X119188996Y-90855078D01*
X119135048Y-90754148D01*
X119109976Y-90707242D01*
X119061313Y-90546823D01*
X119044883Y-90380000D01*
X119061313Y-90213177D01*
X119109976Y-90052758D01*
X119188995Y-89904924D01*
X119188996Y-89904922D01*
X119295341Y-89775341D01*
X119424922Y-89668996D01*
X119440094Y-89660886D01*
X119572758Y-89589976D01*
X119733177Y-89541313D01*
X119858196Y-89529000D01*
X119941804Y-89529000D01*
X120066823Y-89541313D01*
X120066823Y-89541313D01*
G37*
G36*
X127686823Y-89541313D02*
G01*
X127847242Y-89589976D01*
X127979906Y-89660886D01*
X127995078Y-89668996D01*
X128124659Y-89775341D01*
X128231004Y-89904922D01*
X128231005Y-89904924D01*
X128310024Y-90052758D01*
X128358687Y-90213177D01*
X128375117Y-90380000D01*
X128358687Y-90546823D01*
X128310024Y-90707242D01*
X128284952Y-90754148D01*
X128231004Y-90855078D01*
X128124659Y-90984659D01*
X127995078Y-91091004D01*
X127995076Y-91091005D01*
X127847242Y-91170024D01*
X127686823Y-91218687D01*
X127561804Y-91231000D01*
X127478196Y-91231000D01*
X127353177Y-91218687D01*
X127192758Y-91170024D01*
X127044924Y-91091005D01*
X127044922Y-91091004D01*
X126915341Y-90984659D01*
X126808996Y-90855078D01*
X126755048Y-90754148D01*
X126729976Y-90707242D01*
X126681313Y-90546823D01*
X126664883Y-90380000D01*
X126681313Y-90213177D01*
X126729976Y-90052758D01*
X126808995Y-89904924D01*
X126808996Y-89904922D01*
X126915341Y-89775341D01*
X127044922Y-89668996D01*
X127060094Y-89660886D01*
X127192758Y-89589976D01*
X127353177Y-89541313D01*
X127478196Y-89529000D01*
X127561804Y-89529000D01*
X127686823Y-89541313D01*
X127686823Y-89541313D01*
G37*
G36*
X81948228Y-89181703D02*
G01*
X82103100Y-89245853D01*
X82242481Y-89338985D01*
X82361015Y-89457519D01*
X82454147Y-89596900D01*
X82518297Y-89751772D01*
X82551000Y-89916184D01*
X82551000Y-90083816D01*
X82518297Y-90248228D01*
X82454147Y-90403100D01*
X82361015Y-90542481D01*
X82242481Y-90661015D01*
X82103100Y-90754147D01*
X81948228Y-90818297D01*
X81783816Y-90851000D01*
X81616184Y-90851000D01*
X81451772Y-90818297D01*
X81296900Y-90754147D01*
X81157519Y-90661015D01*
X81038985Y-90542481D01*
X80945853Y-90403100D01*
X80881703Y-90248228D01*
X80849000Y-90083816D01*
X80849000Y-89916184D01*
X80881703Y-89751772D01*
X80945853Y-89596900D01*
X81038985Y-89457519D01*
X81157519Y-89338985D01*
X81296900Y-89245853D01*
X81451772Y-89181703D01*
X81616184Y-89149000D01*
X81783816Y-89149000D01*
X81948228Y-89181703D01*
X81948228Y-89181703D01*
G37*
G36*
X89948228Y-89181703D02*
G01*
X90103100Y-89245853D01*
X90242481Y-89338985D01*
X90361015Y-89457519D01*
X90454147Y-89596900D01*
X90518297Y-89751772D01*
X90551000Y-89916184D01*
X90551000Y-90083816D01*
X90518297Y-90248228D01*
X90454147Y-90403100D01*
X90361015Y-90542481D01*
X90242481Y-90661015D01*
X90103100Y-90754147D01*
X89948228Y-90818297D01*
X89783816Y-90851000D01*
X89616184Y-90851000D01*
X89451772Y-90818297D01*
X89296900Y-90754147D01*
X89157519Y-90661015D01*
X89038985Y-90542481D01*
X88945853Y-90403100D01*
X88881703Y-90248228D01*
X88849000Y-90083816D01*
X88849000Y-89916184D01*
X88881703Y-89751772D01*
X88945853Y-89596900D01*
X89038985Y-89457519D01*
X89157519Y-89338985D01*
X89296900Y-89245853D01*
X89451772Y-89181703D01*
X89616184Y-89149000D01*
X89783816Y-89149000D01*
X89948228Y-89181703D01*
X89948228Y-89181703D01*
G37*
G36*
X127686823Y-87001313D02*
G01*
X127847242Y-87049976D01*
X127975058Y-87118295D01*
X127995078Y-87128996D01*
X128124659Y-87235341D01*
X128231004Y-87364922D01*
X128231005Y-87364924D01*
X128310024Y-87512758D01*
X128358687Y-87673177D01*
X128375117Y-87840000D01*
X128358687Y-88006823D01*
X128310024Y-88167242D01*
X128239114Y-88299906D01*
X128231004Y-88315078D01*
X128124659Y-88444659D01*
X127995078Y-88551004D01*
X127995076Y-88551005D01*
X127847242Y-88630024D01*
X127686823Y-88678687D01*
X127561804Y-88691000D01*
X127478196Y-88691000D01*
X127353177Y-88678687D01*
X127192758Y-88630024D01*
X127044924Y-88551005D01*
X127044922Y-88551004D01*
X126915341Y-88444659D01*
X126808996Y-88315078D01*
X126800886Y-88299906D01*
X126729976Y-88167242D01*
X126681313Y-88006823D01*
X126664883Y-87840000D01*
X126681313Y-87673177D01*
X126729976Y-87512758D01*
X126808995Y-87364924D01*
X126808996Y-87364922D01*
X126915341Y-87235341D01*
X127044922Y-87128996D01*
X127064942Y-87118295D01*
X127192758Y-87049976D01*
X127353177Y-87001313D01*
X127478196Y-86989000D01*
X127561804Y-86989000D01*
X127686823Y-87001313D01*
X127686823Y-87001313D01*
G37*
G36*
X120066823Y-87001313D02*
G01*
X120227242Y-87049976D01*
X120355058Y-87118295D01*
X120375078Y-87128996D01*
X120504659Y-87235341D01*
X120611004Y-87364922D01*
X120611005Y-87364924D01*
X120690024Y-87512758D01*
X120738687Y-87673177D01*
X120755117Y-87840000D01*
X120738687Y-88006823D01*
X120690024Y-88167242D01*
X120619114Y-88299906D01*
X120611004Y-88315078D01*
X120504659Y-88444659D01*
X120375078Y-88551004D01*
X120375076Y-88551005D01*
X120227242Y-88630024D01*
X120066823Y-88678687D01*
X119941804Y-88691000D01*
X119858196Y-88691000D01*
X119733177Y-88678687D01*
X119572758Y-88630024D01*
X119424924Y-88551005D01*
X119424922Y-88551004D01*
X119295341Y-88444659D01*
X119188996Y-88315078D01*
X119180886Y-88299906D01*
X119109976Y-88167242D01*
X119061313Y-88006823D01*
X119044883Y-87840000D01*
X119061313Y-87673177D01*
X119109976Y-87512758D01*
X119188995Y-87364924D01*
X119188996Y-87364922D01*
X119295341Y-87235341D01*
X119424922Y-87128996D01*
X119444942Y-87118295D01*
X119572758Y-87049976D01*
X119733177Y-87001313D01*
X119858196Y-86989000D01*
X119941804Y-86989000D01*
X120066823Y-87001313D01*
X120066823Y-87001313D01*
G37*
G36*
X137348228Y-85481703D02*
G01*
X137503100Y-85545853D01*
X137642481Y-85638985D01*
X137761015Y-85757519D01*
X137854147Y-85896900D01*
X137918297Y-86051772D01*
X137951000Y-86216184D01*
X137951000Y-86383816D01*
X137918297Y-86548228D01*
X137854147Y-86703100D01*
X137761015Y-86842481D01*
X137642481Y-86961015D01*
X137503100Y-87054147D01*
X137348228Y-87118297D01*
X137183816Y-87151000D01*
X137016184Y-87151000D01*
X136851772Y-87118297D01*
X136696900Y-87054147D01*
X136557519Y-86961015D01*
X136438985Y-86842481D01*
X136345853Y-86703100D01*
X136281703Y-86548228D01*
X136249000Y-86383816D01*
X136249000Y-86216184D01*
X136281703Y-86051772D01*
X136345853Y-85896900D01*
X136438985Y-85757519D01*
X136557519Y-85638985D01*
X136696900Y-85545853D01*
X136851772Y-85481703D01*
X137016184Y-85449000D01*
X137183816Y-85449000D01*
X137348228Y-85481703D01*
X137348228Y-85481703D01*
G37*
G36*
X132348228Y-85481703D02*
G01*
X132503100Y-85545853D01*
X132642481Y-85638985D01*
X132761015Y-85757519D01*
X132854147Y-85896900D01*
X132918297Y-86051772D01*
X132951000Y-86216184D01*
X132951000Y-86383816D01*
X132918297Y-86548228D01*
X132854147Y-86703100D01*
X132761015Y-86842481D01*
X132642481Y-86961015D01*
X132503100Y-87054147D01*
X132348228Y-87118297D01*
X132183816Y-87151000D01*
X132016184Y-87151000D01*
X131851772Y-87118297D01*
X131696900Y-87054147D01*
X131557519Y-86961015D01*
X131438985Y-86842481D01*
X131345853Y-86703100D01*
X131281703Y-86548228D01*
X131249000Y-86383816D01*
X131249000Y-86216184D01*
X131281703Y-86051772D01*
X131345853Y-85896900D01*
X131438985Y-85757519D01*
X131557519Y-85638985D01*
X131696900Y-85545853D01*
X131851772Y-85481703D01*
X132016184Y-85449000D01*
X132183816Y-85449000D01*
X132348228Y-85481703D01*
X132348228Y-85481703D01*
G37*
G36*
X141848228Y-85381703D02*
G01*
X142003100Y-85445853D01*
X142142481Y-85538985D01*
X142261015Y-85657519D01*
X142354147Y-85796900D01*
X142418297Y-85951772D01*
X142451000Y-86116184D01*
X142451000Y-86283816D01*
X142418297Y-86448228D01*
X142354147Y-86603100D01*
X142261015Y-86742481D01*
X142142481Y-86861015D01*
X142003100Y-86954147D01*
X141848228Y-87018297D01*
X141683816Y-87051000D01*
X141516184Y-87051000D01*
X141351772Y-87018297D01*
X141196900Y-86954147D01*
X141057519Y-86861015D01*
X140938985Y-86742481D01*
X140845853Y-86603100D01*
X140781703Y-86448228D01*
X140749000Y-86283816D01*
X140749000Y-86116184D01*
X140781703Y-85951772D01*
X140845853Y-85796900D01*
X140938985Y-85657519D01*
X141057519Y-85538985D01*
X141196900Y-85445853D01*
X141351772Y-85381703D01*
X141516184Y-85349000D01*
X141683816Y-85349000D01*
X141848228Y-85381703D01*
X141848228Y-85381703D01*
G37*
G36*
X97101000Y-86201000D02*
G01*
X95299000Y-86201000D01*
X95299000Y-84399000D01*
X97101000Y-84399000D01*
X97101000Y-86201000D01*
X97101000Y-86201000D01*
G37*
G36*
X107446823Y-84461313D02*
G01*
X107607242Y-84509976D01*
X107674361Y-84545852D01*
X107755078Y-84588996D01*
X107884659Y-84695341D01*
X107991004Y-84824922D01*
X107991005Y-84824924D01*
X108070024Y-84972758D01*
X108118687Y-85133177D01*
X108135117Y-85300000D01*
X108118687Y-85466823D01*
X108070024Y-85627242D01*
X108029477Y-85703100D01*
X107991004Y-85775078D01*
X107884659Y-85904659D01*
X107755078Y-86011004D01*
X107755076Y-86011005D01*
X107607242Y-86090024D01*
X107446823Y-86138687D01*
X107321804Y-86151000D01*
X107238196Y-86151000D01*
X107113177Y-86138687D01*
X106952758Y-86090024D01*
X106804924Y-86011005D01*
X106804922Y-86011004D01*
X106675341Y-85904659D01*
X106568996Y-85775078D01*
X106530523Y-85703100D01*
X106489976Y-85627242D01*
X106441313Y-85466823D01*
X106424883Y-85300000D01*
X106441313Y-85133177D01*
X106489976Y-84972758D01*
X106568995Y-84824924D01*
X106568996Y-84824922D01*
X106675341Y-84695341D01*
X106804922Y-84588996D01*
X106885639Y-84545852D01*
X106952758Y-84509976D01*
X107113177Y-84461313D01*
X107238196Y-84449000D01*
X107321804Y-84449000D01*
X107446823Y-84461313D01*
X107446823Y-84461313D01*
G37*
G36*
X120066823Y-84461313D02*
G01*
X120227242Y-84509976D01*
X120294361Y-84545852D01*
X120375078Y-84588996D01*
X120504659Y-84695341D01*
X120611004Y-84824922D01*
X120611005Y-84824924D01*
X120690024Y-84972758D01*
X120738687Y-85133177D01*
X120755117Y-85300000D01*
X120738687Y-85466823D01*
X120690024Y-85627242D01*
X120649477Y-85703100D01*
X120611004Y-85775078D01*
X120504659Y-85904659D01*
X120375078Y-86011004D01*
X120375076Y-86011005D01*
X120227242Y-86090024D01*
X120066823Y-86138687D01*
X119941804Y-86151000D01*
X119858196Y-86151000D01*
X119733177Y-86138687D01*
X119572758Y-86090024D01*
X119424924Y-86011005D01*
X119424922Y-86011004D01*
X119295341Y-85904659D01*
X119188996Y-85775078D01*
X119150523Y-85703100D01*
X119109976Y-85627242D01*
X119061313Y-85466823D01*
X119044883Y-85300000D01*
X119061313Y-85133177D01*
X119109976Y-84972758D01*
X119188995Y-84824924D01*
X119188996Y-84824922D01*
X119295341Y-84695341D01*
X119424922Y-84588996D01*
X119505639Y-84545852D01*
X119572758Y-84509976D01*
X119733177Y-84461313D01*
X119858196Y-84449000D01*
X119941804Y-84449000D01*
X120066823Y-84461313D01*
X120066823Y-84461313D01*
G37*
G36*
X115148228Y-84481703D02*
G01*
X115303100Y-84545853D01*
X115442481Y-84638985D01*
X115561015Y-84757519D01*
X115654147Y-84896900D01*
X115718297Y-85051772D01*
X115751000Y-85216184D01*
X115751000Y-85383816D01*
X115718297Y-85548228D01*
X115654147Y-85703100D01*
X115561015Y-85842481D01*
X115442481Y-85961015D01*
X115303100Y-86054147D01*
X115148228Y-86118297D01*
X114983816Y-86151000D01*
X114816184Y-86151000D01*
X114651772Y-86118297D01*
X114496900Y-86054147D01*
X114357519Y-85961015D01*
X114238985Y-85842481D01*
X114145853Y-85703100D01*
X114081703Y-85548228D01*
X114049000Y-85383816D01*
X114049000Y-85216184D01*
X114081703Y-85051772D01*
X114145853Y-84896900D01*
X114238985Y-84757519D01*
X114357519Y-84638985D01*
X114496900Y-84545853D01*
X114651772Y-84481703D01*
X114816184Y-84449000D01*
X114983816Y-84449000D01*
X115148228Y-84481703D01*
X115148228Y-84481703D01*
G37*
G36*
X127686823Y-84461313D02*
G01*
X127847242Y-84509976D01*
X127914361Y-84545852D01*
X127995078Y-84588996D01*
X128124659Y-84695341D01*
X128231004Y-84824922D01*
X128231005Y-84824924D01*
X128310024Y-84972758D01*
X128358687Y-85133177D01*
X128375117Y-85300000D01*
X128358687Y-85466823D01*
X128310024Y-85627242D01*
X128269477Y-85703100D01*
X128231004Y-85775078D01*
X128124659Y-85904659D01*
X127995078Y-86011004D01*
X127995076Y-86011005D01*
X127847242Y-86090024D01*
X127686823Y-86138687D01*
X127561804Y-86151000D01*
X127478196Y-86151000D01*
X127353177Y-86138687D01*
X127192758Y-86090024D01*
X127044924Y-86011005D01*
X127044922Y-86011004D01*
X126915341Y-85904659D01*
X126808996Y-85775078D01*
X126770523Y-85703100D01*
X126729976Y-85627242D01*
X126681313Y-85466823D01*
X126664883Y-85300000D01*
X126681313Y-85133177D01*
X126729976Y-84972758D01*
X126808995Y-84824924D01*
X126808996Y-84824922D01*
X126915341Y-84695341D01*
X127044922Y-84588996D01*
X127125639Y-84545852D01*
X127192758Y-84509976D01*
X127353177Y-84461313D01*
X127478196Y-84449000D01*
X127561804Y-84449000D01*
X127686823Y-84461313D01*
X127686823Y-84461313D01*
G37*
G36*
X81948228Y-84181703D02*
G01*
X82103100Y-84245853D01*
X82242481Y-84338985D01*
X82361015Y-84457519D01*
X82454147Y-84596900D01*
X82518297Y-84751772D01*
X82551000Y-84916184D01*
X82551000Y-85083816D01*
X82518297Y-85248228D01*
X82454147Y-85403100D01*
X82361015Y-85542481D01*
X82242481Y-85661015D01*
X82103100Y-85754147D01*
X81948228Y-85818297D01*
X81783816Y-85851000D01*
X81616184Y-85851000D01*
X81451772Y-85818297D01*
X81296900Y-85754147D01*
X81157519Y-85661015D01*
X81038985Y-85542481D01*
X80945853Y-85403100D01*
X80881703Y-85248228D01*
X80849000Y-85083816D01*
X80849000Y-84916184D01*
X80881703Y-84751772D01*
X80945853Y-84596900D01*
X81038985Y-84457519D01*
X81157519Y-84338985D01*
X81296900Y-84245853D01*
X81451772Y-84181703D01*
X81616184Y-84149000D01*
X81783816Y-84149000D01*
X81948228Y-84181703D01*
X81948228Y-84181703D01*
G37*
G36*
X89948228Y-84181703D02*
G01*
X90103100Y-84245853D01*
X90242481Y-84338985D01*
X90361015Y-84457519D01*
X90454147Y-84596900D01*
X90518297Y-84751772D01*
X90551000Y-84916184D01*
X90551000Y-85083816D01*
X90518297Y-85248228D01*
X90454147Y-85403100D01*
X90361015Y-85542481D01*
X90242481Y-85661015D01*
X90103100Y-85754147D01*
X89948228Y-85818297D01*
X89783816Y-85851000D01*
X89616184Y-85851000D01*
X89451772Y-85818297D01*
X89296900Y-85754147D01*
X89157519Y-85661015D01*
X89038985Y-85542481D01*
X88945853Y-85403100D01*
X88881703Y-85248228D01*
X88849000Y-85083816D01*
X88849000Y-84916184D01*
X88881703Y-84751772D01*
X88945853Y-84596900D01*
X89038985Y-84457519D01*
X89157519Y-84338985D01*
X89296900Y-84245853D01*
X89451772Y-84181703D01*
X89616184Y-84149000D01*
X89783816Y-84149000D01*
X89948228Y-84181703D01*
X89948228Y-84181703D01*
G37*
G36*
X96310443Y-81865519D02*
G01*
X96376627Y-81872037D01*
X96546466Y-81923557D01*
X96702991Y-82007222D01*
X96738729Y-82036552D01*
X96840186Y-82119814D01*
X96923448Y-82221271D01*
X96952778Y-82257009D01*
X97036443Y-82413534D01*
X97087963Y-82583373D01*
X97105359Y-82760000D01*
X97087963Y-82936627D01*
X97036443Y-83106466D01*
X96952778Y-83262991D01*
X96923448Y-83298729D01*
X96840186Y-83400186D01*
X96738729Y-83483448D01*
X96702991Y-83512778D01*
X96546466Y-83596443D01*
X96376627Y-83647963D01*
X96310442Y-83654482D01*
X96244260Y-83661000D01*
X96155740Y-83661000D01*
X96089558Y-83654482D01*
X96023373Y-83647963D01*
X95853534Y-83596443D01*
X95697009Y-83512778D01*
X95661271Y-83483448D01*
X95559814Y-83400186D01*
X95476552Y-83298729D01*
X95447222Y-83262991D01*
X95363557Y-83106466D01*
X95312037Y-82936627D01*
X95294641Y-82760000D01*
X95312037Y-82583373D01*
X95363557Y-82413534D01*
X95447222Y-82257009D01*
X95476552Y-82221271D01*
X95559814Y-82119814D01*
X95661271Y-82036552D01*
X95697009Y-82007222D01*
X95853534Y-81923557D01*
X96023373Y-81872037D01*
X96089557Y-81865519D01*
X96155740Y-81859000D01*
X96244260Y-81859000D01*
X96310443Y-81865519D01*
X96310443Y-81865519D01*
G37*
G36*
X127686823Y-81921313D02*
G01*
X127847242Y-81969976D01*
X127916922Y-82007221D01*
X127995078Y-82048996D01*
X128124659Y-82155341D01*
X128231004Y-82284922D01*
X128231005Y-82284924D01*
X128310024Y-82432758D01*
X128358687Y-82593177D01*
X128375117Y-82760000D01*
X128358687Y-82926823D01*
X128310024Y-83087242D01*
X128299747Y-83106468D01*
X128231004Y-83235078D01*
X128124659Y-83364659D01*
X127995078Y-83471004D01*
X127995076Y-83471005D01*
X127847242Y-83550024D01*
X127686823Y-83598687D01*
X127561804Y-83611000D01*
X127478196Y-83611000D01*
X127353177Y-83598687D01*
X127192758Y-83550024D01*
X127044924Y-83471005D01*
X127044922Y-83471004D01*
X126915341Y-83364659D01*
X126808996Y-83235078D01*
X126740253Y-83106468D01*
X126729976Y-83087242D01*
X126681313Y-82926823D01*
X126664883Y-82760000D01*
X126681313Y-82593177D01*
X126729976Y-82432758D01*
X126808995Y-82284924D01*
X126808996Y-82284922D01*
X126915341Y-82155341D01*
X127044922Y-82048996D01*
X127123078Y-82007221D01*
X127192758Y-81969976D01*
X127353177Y-81921313D01*
X127478196Y-81909000D01*
X127561804Y-81909000D01*
X127686823Y-81921313D01*
X127686823Y-81921313D01*
G37*
G36*
X120066823Y-81921313D02*
G01*
X120227242Y-81969976D01*
X120296922Y-82007221D01*
X120375078Y-82048996D01*
X120504659Y-82155341D01*
X120611004Y-82284922D01*
X120611005Y-82284924D01*
X120690024Y-82432758D01*
X120738687Y-82593177D01*
X120755117Y-82760000D01*
X120738687Y-82926823D01*
X120690024Y-83087242D01*
X120679747Y-83106468D01*
X120611004Y-83235078D01*
X120504659Y-83364659D01*
X120375078Y-83471004D01*
X120375076Y-83471005D01*
X120227242Y-83550024D01*
X120066823Y-83598687D01*
X119941804Y-83611000D01*
X119858196Y-83611000D01*
X119733177Y-83598687D01*
X119572758Y-83550024D01*
X119424924Y-83471005D01*
X119424922Y-83471004D01*
X119295341Y-83364659D01*
X119188996Y-83235078D01*
X119120253Y-83106468D01*
X119109976Y-83087242D01*
X119061313Y-82926823D01*
X119044883Y-82760000D01*
X119061313Y-82593177D01*
X119109976Y-82432758D01*
X119188995Y-82284924D01*
X119188996Y-82284922D01*
X119295341Y-82155341D01*
X119424922Y-82048996D01*
X119503078Y-82007221D01*
X119572758Y-81969976D01*
X119733177Y-81921313D01*
X119858196Y-81909000D01*
X119941804Y-81909000D01*
X120066823Y-81921313D01*
X120066823Y-81921313D01*
G37*
G36*
X107446823Y-81921313D02*
G01*
X107607242Y-81969976D01*
X107676922Y-82007221D01*
X107755078Y-82048996D01*
X107884659Y-82155341D01*
X107991004Y-82284922D01*
X107991005Y-82284924D01*
X108070024Y-82432758D01*
X108118687Y-82593177D01*
X108135117Y-82760000D01*
X108118687Y-82926823D01*
X108070024Y-83087242D01*
X108059747Y-83106468D01*
X107991004Y-83235078D01*
X107884659Y-83364659D01*
X107755078Y-83471004D01*
X107755076Y-83471005D01*
X107607242Y-83550024D01*
X107446823Y-83598687D01*
X107321804Y-83611000D01*
X107238196Y-83611000D01*
X107113177Y-83598687D01*
X106952758Y-83550024D01*
X106804924Y-83471005D01*
X106804922Y-83471004D01*
X106675341Y-83364659D01*
X106568996Y-83235078D01*
X106500253Y-83106468D01*
X106489976Y-83087242D01*
X106441313Y-82926823D01*
X106424883Y-82760000D01*
X106441313Y-82593177D01*
X106489976Y-82432758D01*
X106568995Y-82284924D01*
X106568996Y-82284922D01*
X106675341Y-82155341D01*
X106804922Y-82048996D01*
X106883078Y-82007221D01*
X106952758Y-81969976D01*
X107113177Y-81921313D01*
X107238196Y-81909000D01*
X107321804Y-81909000D01*
X107446823Y-81921313D01*
X107446823Y-81921313D01*
G37*
G36*
X115066823Y-81921313D02*
G01*
X115227242Y-81969976D01*
X115296922Y-82007221D01*
X115375078Y-82048996D01*
X115504659Y-82155341D01*
X115611004Y-82284922D01*
X115611005Y-82284924D01*
X115690024Y-82432758D01*
X115738687Y-82593177D01*
X115755117Y-82760000D01*
X115738687Y-82926823D01*
X115690024Y-83087242D01*
X115679747Y-83106468D01*
X115611004Y-83235078D01*
X115504659Y-83364659D01*
X115375078Y-83471004D01*
X115375076Y-83471005D01*
X115227242Y-83550024D01*
X115066823Y-83598687D01*
X114941804Y-83611000D01*
X114858196Y-83611000D01*
X114733177Y-83598687D01*
X114572758Y-83550024D01*
X114424924Y-83471005D01*
X114424922Y-83471004D01*
X114295341Y-83364659D01*
X114188996Y-83235078D01*
X114120253Y-83106468D01*
X114109976Y-83087242D01*
X114061313Y-82926823D01*
X114044883Y-82760000D01*
X114061313Y-82593177D01*
X114109976Y-82432758D01*
X114188995Y-82284924D01*
X114188996Y-82284922D01*
X114295341Y-82155341D01*
X114424922Y-82048996D01*
X114503078Y-82007221D01*
X114572758Y-81969976D01*
X114733177Y-81921313D01*
X114858196Y-81909000D01*
X114941804Y-81909000D01*
X115066823Y-81921313D01*
X115066823Y-81921313D01*
G37*
G36*
X96310442Y-79325518D02*
G01*
X96376627Y-79332037D01*
X96546466Y-79383557D01*
X96702991Y-79467222D01*
X96738729Y-79496552D01*
X96840186Y-79579814D01*
X96923448Y-79681271D01*
X96952778Y-79717009D01*
X97036443Y-79873534D01*
X97087963Y-80043373D01*
X97105359Y-80220000D01*
X97087963Y-80396627D01*
X97036443Y-80566466D01*
X96952778Y-80722991D01*
X96923448Y-80758729D01*
X96840186Y-80860186D01*
X96738729Y-80943448D01*
X96702991Y-80972778D01*
X96546466Y-81056443D01*
X96376627Y-81107963D01*
X96310442Y-81114482D01*
X96244260Y-81121000D01*
X96155740Y-81121000D01*
X96089558Y-81114482D01*
X96023373Y-81107963D01*
X95853534Y-81056443D01*
X95697009Y-80972778D01*
X95661271Y-80943448D01*
X95559814Y-80860186D01*
X95476552Y-80758729D01*
X95447222Y-80722991D01*
X95363557Y-80566466D01*
X95312037Y-80396627D01*
X95294641Y-80220000D01*
X95312037Y-80043373D01*
X95363557Y-79873534D01*
X95447222Y-79717009D01*
X95476552Y-79681271D01*
X95559814Y-79579814D01*
X95661271Y-79496552D01*
X95697009Y-79467222D01*
X95853534Y-79383557D01*
X96023373Y-79332037D01*
X96089558Y-79325518D01*
X96155740Y-79319000D01*
X96244260Y-79319000D01*
X96310442Y-79325518D01*
X96310442Y-79325518D01*
G37*
G36*
X127686823Y-79381313D02*
G01*
X127847242Y-79429976D01*
X127972251Y-79496795D01*
X127995078Y-79508996D01*
X128124659Y-79615341D01*
X128231004Y-79744922D01*
X128231005Y-79744924D01*
X128310024Y-79892758D01*
X128358687Y-80053177D01*
X128375117Y-80220000D01*
X128358687Y-80386823D01*
X128310024Y-80547242D01*
X128299747Y-80566468D01*
X128231004Y-80695078D01*
X128124659Y-80824659D01*
X127995078Y-80931004D01*
X127995076Y-80931005D01*
X127847242Y-81010024D01*
X127686823Y-81058687D01*
X127561804Y-81071000D01*
X127478196Y-81071000D01*
X127353177Y-81058687D01*
X127192758Y-81010024D01*
X127044924Y-80931005D01*
X127044922Y-80931004D01*
X126915341Y-80824659D01*
X126808996Y-80695078D01*
X126740253Y-80566468D01*
X126729976Y-80547242D01*
X126681313Y-80386823D01*
X126664883Y-80220000D01*
X126681313Y-80053177D01*
X126729976Y-79892758D01*
X126808995Y-79744924D01*
X126808996Y-79744922D01*
X126915341Y-79615341D01*
X127044922Y-79508996D01*
X127067749Y-79496795D01*
X127192758Y-79429976D01*
X127353177Y-79381313D01*
X127478196Y-79369000D01*
X127561804Y-79369000D01*
X127686823Y-79381313D01*
X127686823Y-79381313D01*
G37*
G36*
X139986823Y-79381313D02*
G01*
X140147242Y-79429976D01*
X140272251Y-79496795D01*
X140295078Y-79508996D01*
X140424659Y-79615341D01*
X140531004Y-79744922D01*
X140531005Y-79744924D01*
X140610024Y-79892758D01*
X140658687Y-80053177D01*
X140675117Y-80220000D01*
X140658687Y-80386823D01*
X140610024Y-80547242D01*
X140599747Y-80566468D01*
X140531004Y-80695078D01*
X140424659Y-80824659D01*
X140295078Y-80931004D01*
X140295076Y-80931005D01*
X140147242Y-81010024D01*
X139986823Y-81058687D01*
X139861804Y-81071000D01*
X139778196Y-81071000D01*
X139653177Y-81058687D01*
X139492758Y-81010024D01*
X139344924Y-80931005D01*
X139344922Y-80931004D01*
X139215341Y-80824659D01*
X139108996Y-80695078D01*
X139040253Y-80566468D01*
X139029976Y-80547242D01*
X138981313Y-80386823D01*
X138964883Y-80220000D01*
X138981313Y-80053177D01*
X139029976Y-79892758D01*
X139108995Y-79744924D01*
X139108996Y-79744922D01*
X139215341Y-79615341D01*
X139344922Y-79508996D01*
X139367749Y-79496795D01*
X139492758Y-79429976D01*
X139653177Y-79381313D01*
X139778196Y-79369000D01*
X139861804Y-79369000D01*
X139986823Y-79381313D01*
X139986823Y-79381313D01*
G37*
G36*
X132366823Y-79381313D02*
G01*
X132527242Y-79429976D01*
X132652251Y-79496795D01*
X132675078Y-79508996D01*
X132804659Y-79615341D01*
X132911004Y-79744922D01*
X132911005Y-79744924D01*
X132990024Y-79892758D01*
X133038687Y-80053177D01*
X133055117Y-80220000D01*
X133038687Y-80386823D01*
X132990024Y-80547242D01*
X132979747Y-80566468D01*
X132911004Y-80695078D01*
X132804659Y-80824659D01*
X132675078Y-80931004D01*
X132675076Y-80931005D01*
X132527242Y-81010024D01*
X132366823Y-81058687D01*
X132241804Y-81071000D01*
X132158196Y-81071000D01*
X132033177Y-81058687D01*
X131872758Y-81010024D01*
X131724924Y-80931005D01*
X131724922Y-80931004D01*
X131595341Y-80824659D01*
X131488996Y-80695078D01*
X131420253Y-80566468D01*
X131409976Y-80547242D01*
X131361313Y-80386823D01*
X131344883Y-80220000D01*
X131361313Y-80053177D01*
X131409976Y-79892758D01*
X131488995Y-79744924D01*
X131488996Y-79744922D01*
X131595341Y-79615341D01*
X131724922Y-79508996D01*
X131747749Y-79496795D01*
X131872758Y-79429976D01*
X132033177Y-79381313D01*
X132158196Y-79369000D01*
X132241804Y-79369000D01*
X132366823Y-79381313D01*
X132366823Y-79381313D01*
G37*
G36*
X120066823Y-79381313D02*
G01*
X120227242Y-79429976D01*
X120352251Y-79496795D01*
X120375078Y-79508996D01*
X120504659Y-79615341D01*
X120611004Y-79744922D01*
X120611005Y-79744924D01*
X120690024Y-79892758D01*
X120738687Y-80053177D01*
X120755117Y-80220000D01*
X120738687Y-80386823D01*
X120690024Y-80547242D01*
X120679747Y-80566468D01*
X120611004Y-80695078D01*
X120504659Y-80824659D01*
X120375078Y-80931004D01*
X120375076Y-80931005D01*
X120227242Y-81010024D01*
X120066823Y-81058687D01*
X119941804Y-81071000D01*
X119858196Y-81071000D01*
X119733177Y-81058687D01*
X119572758Y-81010024D01*
X119424924Y-80931005D01*
X119424922Y-80931004D01*
X119295341Y-80824659D01*
X119188996Y-80695078D01*
X119120253Y-80566468D01*
X119109976Y-80547242D01*
X119061313Y-80386823D01*
X119044883Y-80220000D01*
X119061313Y-80053177D01*
X119109976Y-79892758D01*
X119188995Y-79744924D01*
X119188996Y-79744922D01*
X119295341Y-79615341D01*
X119424922Y-79508996D01*
X119447749Y-79496795D01*
X119572758Y-79429976D01*
X119733177Y-79381313D01*
X119858196Y-79369000D01*
X119941804Y-79369000D01*
X120066823Y-79381313D01*
X120066823Y-79381313D01*
G37*
G36*
X115066823Y-79381313D02*
G01*
X115227242Y-79429976D01*
X115352251Y-79496795D01*
X115375078Y-79508996D01*
X115504659Y-79615341D01*
X115611004Y-79744922D01*
X115611005Y-79744924D01*
X115690024Y-79892758D01*
X115738687Y-80053177D01*
X115755117Y-80220000D01*
X115738687Y-80386823D01*
X115690024Y-80547242D01*
X115679747Y-80566468D01*
X115611004Y-80695078D01*
X115504659Y-80824659D01*
X115375078Y-80931004D01*
X115375076Y-80931005D01*
X115227242Y-81010024D01*
X115066823Y-81058687D01*
X114941804Y-81071000D01*
X114858196Y-81071000D01*
X114733177Y-81058687D01*
X114572758Y-81010024D01*
X114424924Y-80931005D01*
X114424922Y-80931004D01*
X114295341Y-80824659D01*
X114188996Y-80695078D01*
X114120253Y-80566468D01*
X114109976Y-80547242D01*
X114061313Y-80386823D01*
X114044883Y-80220000D01*
X114061313Y-80053177D01*
X114109976Y-79892758D01*
X114188995Y-79744924D01*
X114188996Y-79744922D01*
X114295341Y-79615341D01*
X114424922Y-79508996D01*
X114447749Y-79496795D01*
X114572758Y-79429976D01*
X114733177Y-79381313D01*
X114858196Y-79369000D01*
X114941804Y-79369000D01*
X115066823Y-79381313D01*
X115066823Y-79381313D01*
G37*
G36*
X107446823Y-79381313D02*
G01*
X107607242Y-79429976D01*
X107732251Y-79496795D01*
X107755078Y-79508996D01*
X107884659Y-79615341D01*
X107991004Y-79744922D01*
X107991005Y-79744924D01*
X108070024Y-79892758D01*
X108118687Y-80053177D01*
X108135117Y-80220000D01*
X108118687Y-80386823D01*
X108070024Y-80547242D01*
X108059747Y-80566468D01*
X107991004Y-80695078D01*
X107884659Y-80824659D01*
X107755078Y-80931004D01*
X107755076Y-80931005D01*
X107607242Y-81010024D01*
X107446823Y-81058687D01*
X107321804Y-81071000D01*
X107238196Y-81071000D01*
X107113177Y-81058687D01*
X106952758Y-81010024D01*
X106804924Y-80931005D01*
X106804922Y-80931004D01*
X106675341Y-80824659D01*
X106568996Y-80695078D01*
X106500253Y-80566468D01*
X106489976Y-80547242D01*
X106441313Y-80386823D01*
X106424883Y-80220000D01*
X106441313Y-80053177D01*
X106489976Y-79892758D01*
X106568995Y-79744924D01*
X106568996Y-79744922D01*
X106675341Y-79615341D01*
X106804922Y-79508996D01*
X106827749Y-79496795D01*
X106952758Y-79429976D01*
X107113177Y-79381313D01*
X107238196Y-79369000D01*
X107321804Y-79369000D01*
X107446823Y-79381313D01*
X107446823Y-79381313D01*
G37*
G36*
X88376719Y-78363520D02*
G01*
X88565880Y-78420901D01*
X88565883Y-78420902D01*
X88657783Y-78470024D01*
X88740212Y-78514083D01*
X88893015Y-78639485D01*
X89018417Y-78792288D01*
X89111599Y-78966619D01*
X89168980Y-79155780D01*
X89183500Y-79303206D01*
X89183500Y-79496793D01*
X89168980Y-79644219D01*
X89111599Y-79833380D01*
X89111598Y-79833383D01*
X89062182Y-79925833D01*
X89018417Y-80007712D01*
X88893015Y-80160515D01*
X88740212Y-80285917D01*
X88565881Y-80379099D01*
X88376720Y-80436480D01*
X88180000Y-80455855D01*
X87983281Y-80436480D01*
X87794120Y-80379099D01*
X87619788Y-80285917D01*
X87466985Y-80160515D01*
X87341583Y-80007712D01*
X87248401Y-79833381D01*
X87191020Y-79644220D01*
X87176500Y-79496794D01*
X87176500Y-79303207D01*
X87191020Y-79155781D01*
X87248401Y-78966620D01*
X87248402Y-78966617D01*
X87297818Y-78874167D01*
X87341583Y-78792288D01*
X87466985Y-78639485D01*
X87619788Y-78514083D01*
X87794119Y-78420901D01*
X87983280Y-78363520D01*
X88180000Y-78344145D01*
X88376719Y-78363520D01*
X88376719Y-78363520D01*
G37*
G36*
X86643500Y-80451000D02*
G01*
X84636500Y-80451000D01*
X84636500Y-78349000D01*
X86643500Y-78349000D01*
X86643500Y-80451000D01*
X86643500Y-80451000D01*
G37*
G36*
X83226425Y-78401988D02*
G01*
X83392710Y-78435063D01*
X83575336Y-78510709D01*
X83739694Y-78620530D01*
X83879470Y-78760306D01*
X83989291Y-78924664D01*
X84064937Y-79107290D01*
X84103500Y-79301164D01*
X84103500Y-79498836D01*
X84064937Y-79692710D01*
X83989291Y-79875336D01*
X83879470Y-80039694D01*
X83739694Y-80179470D01*
X83575336Y-80289291D01*
X83392710Y-80364937D01*
X83226425Y-80398012D01*
X83198837Y-80403500D01*
X83001163Y-80403500D01*
X82973575Y-80398012D01*
X82807290Y-80364937D01*
X82624664Y-80289291D01*
X82460306Y-80179470D01*
X82320530Y-80039694D01*
X82210709Y-79875336D01*
X82135063Y-79692710D01*
X82096500Y-79498836D01*
X82096500Y-79301164D01*
X82135063Y-79107290D01*
X82210709Y-78924664D01*
X82320530Y-78760306D01*
X82460306Y-78620530D01*
X82624664Y-78510709D01*
X82807290Y-78435063D01*
X82973575Y-78401988D01*
X83001163Y-78396500D01*
X83198837Y-78396500D01*
X83226425Y-78401988D01*
X83226425Y-78401988D01*
G37*
G36*
X96310442Y-76785518D02*
G01*
X96376627Y-76792037D01*
X96546466Y-76843557D01*
X96702991Y-76927222D01*
X96738729Y-76956552D01*
X96840186Y-77039814D01*
X96923448Y-77141271D01*
X96952778Y-77177009D01*
X97036443Y-77333534D01*
X97087963Y-77503373D01*
X97105359Y-77680000D01*
X97087963Y-77856627D01*
X97036443Y-78026466D01*
X96952778Y-78182991D01*
X96923448Y-78218729D01*
X96840186Y-78320186D01*
X96747196Y-78396500D01*
X96702991Y-78432778D01*
X96702989Y-78432779D01*
X96557194Y-78510709D01*
X96546466Y-78516443D01*
X96376627Y-78567963D01*
X96310443Y-78574481D01*
X96244260Y-78581000D01*
X96155740Y-78581000D01*
X96089557Y-78574481D01*
X96023373Y-78567963D01*
X95853534Y-78516443D01*
X95842807Y-78510709D01*
X95697011Y-78432779D01*
X95697009Y-78432778D01*
X95652804Y-78396500D01*
X95559814Y-78320186D01*
X95476552Y-78218729D01*
X95447222Y-78182991D01*
X95363557Y-78026466D01*
X95312037Y-77856627D01*
X95294641Y-77680000D01*
X95312037Y-77503373D01*
X95363557Y-77333534D01*
X95447222Y-77177009D01*
X95476552Y-77141271D01*
X95559814Y-77039814D01*
X95661271Y-76956552D01*
X95697009Y-76927222D01*
X95853534Y-76843557D01*
X96023373Y-76792037D01*
X96089558Y-76785518D01*
X96155740Y-76779000D01*
X96244260Y-76779000D01*
X96310442Y-76785518D01*
X96310442Y-76785518D01*
G37*
G36*
X132366823Y-76841313D02*
G01*
X132527242Y-76889976D01*
X132596922Y-76927221D01*
X132675078Y-76968996D01*
X132804659Y-77075341D01*
X132911004Y-77204922D01*
X132911005Y-77204924D01*
X132990024Y-77352758D01*
X133038687Y-77513177D01*
X133055117Y-77680000D01*
X133038687Y-77846823D01*
X132990024Y-78007242D01*
X132979747Y-78026468D01*
X132911004Y-78155078D01*
X132804659Y-78284659D01*
X132675078Y-78391004D01*
X132675076Y-78391005D01*
X132527242Y-78470024D01*
X132366823Y-78518687D01*
X132241804Y-78531000D01*
X132158196Y-78531000D01*
X132033177Y-78518687D01*
X131872758Y-78470024D01*
X131724924Y-78391005D01*
X131724922Y-78391004D01*
X131595341Y-78284659D01*
X131488996Y-78155078D01*
X131420253Y-78026468D01*
X131409976Y-78007242D01*
X131361313Y-77846823D01*
X131344883Y-77680000D01*
X131361313Y-77513177D01*
X131409976Y-77352758D01*
X131488995Y-77204924D01*
X131488996Y-77204922D01*
X131595341Y-77075341D01*
X131724922Y-76968996D01*
X131803078Y-76927221D01*
X131872758Y-76889976D01*
X132033177Y-76841313D01*
X132158196Y-76829000D01*
X132241804Y-76829000D01*
X132366823Y-76841313D01*
X132366823Y-76841313D01*
G37*
G36*
X120066823Y-76841313D02*
G01*
X120227242Y-76889976D01*
X120296922Y-76927221D01*
X120375078Y-76968996D01*
X120504659Y-77075341D01*
X120611004Y-77204922D01*
X120611005Y-77204924D01*
X120690024Y-77352758D01*
X120738687Y-77513177D01*
X120755117Y-77680000D01*
X120738687Y-77846823D01*
X120690024Y-78007242D01*
X120679747Y-78026468D01*
X120611004Y-78155078D01*
X120504659Y-78284659D01*
X120375078Y-78391004D01*
X120375076Y-78391005D01*
X120227242Y-78470024D01*
X120066823Y-78518687D01*
X119941804Y-78531000D01*
X119858196Y-78531000D01*
X119733177Y-78518687D01*
X119572758Y-78470024D01*
X119424924Y-78391005D01*
X119424922Y-78391004D01*
X119295341Y-78284659D01*
X119188996Y-78155078D01*
X119120253Y-78026468D01*
X119109976Y-78007242D01*
X119061313Y-77846823D01*
X119044883Y-77680000D01*
X119061313Y-77513177D01*
X119109976Y-77352758D01*
X119188995Y-77204924D01*
X119188996Y-77204922D01*
X119295341Y-77075341D01*
X119424922Y-76968996D01*
X119503078Y-76927221D01*
X119572758Y-76889976D01*
X119733177Y-76841313D01*
X119858196Y-76829000D01*
X119941804Y-76829000D01*
X120066823Y-76841313D01*
X120066823Y-76841313D01*
G37*
G36*
X127686823Y-76841313D02*
G01*
X127847242Y-76889976D01*
X127916922Y-76927221D01*
X127995078Y-76968996D01*
X128124659Y-77075341D01*
X128231004Y-77204922D01*
X128231005Y-77204924D01*
X128310024Y-77352758D01*
X128358687Y-77513177D01*
X128375117Y-77680000D01*
X128358687Y-77846823D01*
X128310024Y-78007242D01*
X128299747Y-78026468D01*
X128231004Y-78155078D01*
X128124659Y-78284659D01*
X127995078Y-78391004D01*
X127995076Y-78391005D01*
X127847242Y-78470024D01*
X127686823Y-78518687D01*
X127561804Y-78531000D01*
X127478196Y-78531000D01*
X127353177Y-78518687D01*
X127192758Y-78470024D01*
X127044924Y-78391005D01*
X127044922Y-78391004D01*
X126915341Y-78284659D01*
X126808996Y-78155078D01*
X126740253Y-78026468D01*
X126729976Y-78007242D01*
X126681313Y-77846823D01*
X126664883Y-77680000D01*
X126681313Y-77513177D01*
X126729976Y-77352758D01*
X126808995Y-77204924D01*
X126808996Y-77204922D01*
X126915341Y-77075341D01*
X127044922Y-76968996D01*
X127123078Y-76927221D01*
X127192758Y-76889976D01*
X127353177Y-76841313D01*
X127478196Y-76829000D01*
X127561804Y-76829000D01*
X127686823Y-76841313D01*
X127686823Y-76841313D01*
G37*
G36*
X139986823Y-76841313D02*
G01*
X140147242Y-76889976D01*
X140216922Y-76927221D01*
X140295078Y-76968996D01*
X140424659Y-77075341D01*
X140531004Y-77204922D01*
X140531005Y-77204924D01*
X140610024Y-77352758D01*
X140658687Y-77513177D01*
X140675117Y-77680000D01*
X140658687Y-77846823D01*
X140610024Y-78007242D01*
X140599747Y-78026468D01*
X140531004Y-78155078D01*
X140424659Y-78284659D01*
X140295078Y-78391004D01*
X140295076Y-78391005D01*
X140147242Y-78470024D01*
X139986823Y-78518687D01*
X139861804Y-78531000D01*
X139778196Y-78531000D01*
X139653177Y-78518687D01*
X139492758Y-78470024D01*
X139344924Y-78391005D01*
X139344922Y-78391004D01*
X139215341Y-78284659D01*
X139108996Y-78155078D01*
X139040253Y-78026468D01*
X139029976Y-78007242D01*
X138981313Y-77846823D01*
X138964883Y-77680000D01*
X138981313Y-77513177D01*
X139029976Y-77352758D01*
X139108995Y-77204924D01*
X139108996Y-77204922D01*
X139215341Y-77075341D01*
X139344922Y-76968996D01*
X139423078Y-76927221D01*
X139492758Y-76889976D01*
X139653177Y-76841313D01*
X139778196Y-76829000D01*
X139861804Y-76829000D01*
X139986823Y-76841313D01*
X139986823Y-76841313D01*
G37*
G36*
X108131000Y-78531000D02*
G01*
X106429000Y-78531000D01*
X106429000Y-76829000D01*
X108131000Y-76829000D01*
X108131000Y-78531000D01*
X108131000Y-78531000D01*
G37*
G36*
X115066823Y-76841313D02*
G01*
X115227242Y-76889976D01*
X115296922Y-76927221D01*
X115375078Y-76968996D01*
X115504659Y-77075341D01*
X115611004Y-77204922D01*
X115611005Y-77204924D01*
X115690024Y-77352758D01*
X115738687Y-77513177D01*
X115755117Y-77680000D01*
X115738687Y-77846823D01*
X115690024Y-78007242D01*
X115679747Y-78026468D01*
X115611004Y-78155078D01*
X115504659Y-78284659D01*
X115375078Y-78391004D01*
X115375076Y-78391005D01*
X115227242Y-78470024D01*
X115066823Y-78518687D01*
X114941804Y-78531000D01*
X114858196Y-78531000D01*
X114733177Y-78518687D01*
X114572758Y-78470024D01*
X114424924Y-78391005D01*
X114424922Y-78391004D01*
X114295341Y-78284659D01*
X114188996Y-78155078D01*
X114120253Y-78026468D01*
X114109976Y-78007242D01*
X114061313Y-77846823D01*
X114044883Y-77680000D01*
X114061313Y-77513177D01*
X114109976Y-77352758D01*
X114188995Y-77204924D01*
X114188996Y-77204922D01*
X114295341Y-77075341D01*
X114424922Y-76968996D01*
X114503078Y-76927221D01*
X114572758Y-76889976D01*
X114733177Y-76841313D01*
X114858196Y-76829000D01*
X114941804Y-76829000D01*
X115066823Y-76841313D01*
X115066823Y-76841313D01*
G37*
G36*
X120066823Y-74301313D02*
G01*
X120227242Y-74349976D01*
X120359906Y-74420886D01*
X120375078Y-74428996D01*
X120504659Y-74535341D01*
X120611004Y-74664922D01*
X120611005Y-74664924D01*
X120690024Y-74812758D01*
X120738687Y-74973177D01*
X120755117Y-75140000D01*
X120738687Y-75306823D01*
X120690024Y-75467242D01*
X120619114Y-75599906D01*
X120611004Y-75615078D01*
X120504659Y-75744659D01*
X120375078Y-75851004D01*
X120375076Y-75851005D01*
X120227242Y-75930024D01*
X120066823Y-75978687D01*
X119941804Y-75991000D01*
X119858196Y-75991000D01*
X119733177Y-75978687D01*
X119572758Y-75930024D01*
X119424924Y-75851005D01*
X119424922Y-75851004D01*
X119295341Y-75744659D01*
X119188996Y-75615078D01*
X119180886Y-75599906D01*
X119109976Y-75467242D01*
X119061313Y-75306823D01*
X119044883Y-75140000D01*
X119061313Y-74973177D01*
X119109976Y-74812758D01*
X119188995Y-74664924D01*
X119188996Y-74664922D01*
X119295341Y-74535341D01*
X119424922Y-74428996D01*
X119440094Y-74420886D01*
X119572758Y-74349976D01*
X119733177Y-74301313D01*
X119858196Y-74289000D01*
X119941804Y-74289000D01*
X120066823Y-74301313D01*
X120066823Y-74301313D01*
G37*
G36*
X127686823Y-74301313D02*
G01*
X127847242Y-74349976D01*
X127979906Y-74420886D01*
X127995078Y-74428996D01*
X128124659Y-74535341D01*
X128231004Y-74664922D01*
X128231005Y-74664924D01*
X128310024Y-74812758D01*
X128358687Y-74973177D01*
X128375117Y-75140000D01*
X128358687Y-75306823D01*
X128310024Y-75467242D01*
X128239114Y-75599906D01*
X128231004Y-75615078D01*
X128124659Y-75744659D01*
X127995078Y-75851004D01*
X127995076Y-75851005D01*
X127847242Y-75930024D01*
X127686823Y-75978687D01*
X127561804Y-75991000D01*
X127478196Y-75991000D01*
X127353177Y-75978687D01*
X127192758Y-75930024D01*
X127044924Y-75851005D01*
X127044922Y-75851004D01*
X126915341Y-75744659D01*
X126808996Y-75615078D01*
X126800886Y-75599906D01*
X126729976Y-75467242D01*
X126681313Y-75306823D01*
X126664883Y-75140000D01*
X126681313Y-74973177D01*
X126729976Y-74812758D01*
X126808995Y-74664924D01*
X126808996Y-74664922D01*
X126915341Y-74535341D01*
X127044922Y-74428996D01*
X127060094Y-74420886D01*
X127192758Y-74349976D01*
X127353177Y-74301313D01*
X127478196Y-74289000D01*
X127561804Y-74289000D01*
X127686823Y-74301313D01*
X127686823Y-74301313D01*
G37*
G36*
X139986823Y-74301313D02*
G01*
X140147242Y-74349976D01*
X140279906Y-74420886D01*
X140295078Y-74428996D01*
X140424659Y-74535341D01*
X140531004Y-74664922D01*
X140531005Y-74664924D01*
X140610024Y-74812758D01*
X140658687Y-74973177D01*
X140675117Y-75140000D01*
X140658687Y-75306823D01*
X140610024Y-75467242D01*
X140539114Y-75599906D01*
X140531004Y-75615078D01*
X140424659Y-75744659D01*
X140295078Y-75851004D01*
X140295076Y-75851005D01*
X140147242Y-75930024D01*
X139986823Y-75978687D01*
X139861804Y-75991000D01*
X139778196Y-75991000D01*
X139653177Y-75978687D01*
X139492758Y-75930024D01*
X139344924Y-75851005D01*
X139344922Y-75851004D01*
X139215341Y-75744659D01*
X139108996Y-75615078D01*
X139100886Y-75599906D01*
X139029976Y-75467242D01*
X138981313Y-75306823D01*
X138964883Y-75140000D01*
X138981313Y-74973177D01*
X139029976Y-74812758D01*
X139108995Y-74664924D01*
X139108996Y-74664922D01*
X139215341Y-74535341D01*
X139344922Y-74428996D01*
X139360094Y-74420886D01*
X139492758Y-74349976D01*
X139653177Y-74301313D01*
X139778196Y-74289000D01*
X139861804Y-74289000D01*
X139986823Y-74301313D01*
X139986823Y-74301313D01*
G37*
G36*
X132366823Y-74301313D02*
G01*
X132527242Y-74349976D01*
X132659906Y-74420886D01*
X132675078Y-74428996D01*
X132804659Y-74535341D01*
X132911004Y-74664922D01*
X132911005Y-74664924D01*
X132990024Y-74812758D01*
X133038687Y-74973177D01*
X133055117Y-75140000D01*
X133038687Y-75306823D01*
X132990024Y-75467242D01*
X132919114Y-75599906D01*
X132911004Y-75615078D01*
X132804659Y-75744659D01*
X132675078Y-75851004D01*
X132675076Y-75851005D01*
X132527242Y-75930024D01*
X132366823Y-75978687D01*
X132241804Y-75991000D01*
X132158196Y-75991000D01*
X132033177Y-75978687D01*
X131872758Y-75930024D01*
X131724924Y-75851005D01*
X131724922Y-75851004D01*
X131595341Y-75744659D01*
X131488996Y-75615078D01*
X131480886Y-75599906D01*
X131409976Y-75467242D01*
X131361313Y-75306823D01*
X131344883Y-75140000D01*
X131361313Y-74973177D01*
X131409976Y-74812758D01*
X131488995Y-74664924D01*
X131488996Y-74664922D01*
X131595341Y-74535341D01*
X131724922Y-74428996D01*
X131740094Y-74420886D01*
X131872758Y-74349976D01*
X132033177Y-74301313D01*
X132158196Y-74289000D01*
X132241804Y-74289000D01*
X132366823Y-74301313D01*
X132366823Y-74301313D01*
G37*
G36*
X108306564Y-71589389D02*
G01*
X108497833Y-71668615D01*
X108497835Y-71668616D01*
X108618138Y-71749000D01*
X108669973Y-71783635D01*
X108816365Y-71930027D01*
X108931385Y-72102167D01*
X109010611Y-72293436D01*
X109051000Y-72496484D01*
X109051000Y-72703516D01*
X109010611Y-72906564D01*
X108940811Y-73075076D01*
X108931384Y-73097835D01*
X108816365Y-73269973D01*
X108669973Y-73416365D01*
X108497835Y-73531384D01*
X108497834Y-73531385D01*
X108497833Y-73531385D01*
X108306564Y-73610611D01*
X108103516Y-73651000D01*
X107896484Y-73651000D01*
X107693436Y-73610611D01*
X107502167Y-73531385D01*
X107502166Y-73531385D01*
X107502165Y-73531384D01*
X107330027Y-73416365D01*
X107183635Y-73269973D01*
X107068616Y-73097835D01*
X107059189Y-73075076D01*
X106989389Y-72906564D01*
X106949000Y-72703516D01*
X106949000Y-72496484D01*
X106989389Y-72293436D01*
X107068615Y-72102167D01*
X107183635Y-71930027D01*
X107330027Y-71783635D01*
X107381862Y-71749000D01*
X107502165Y-71668616D01*
X107502167Y-71668615D01*
X107693436Y-71589389D01*
X107896484Y-71549000D01*
X108103516Y-71549000D01*
X108306564Y-71589389D01*
X108306564Y-71589389D01*
G37*
G36*
X114806564Y-71589389D02*
G01*
X114997833Y-71668615D01*
X114997835Y-71668616D01*
X115118138Y-71749000D01*
X115169973Y-71783635D01*
X115316365Y-71930027D01*
X115431385Y-72102167D01*
X115510611Y-72293436D01*
X115551000Y-72496484D01*
X115551000Y-72703516D01*
X115510611Y-72906564D01*
X115440811Y-73075076D01*
X115431384Y-73097835D01*
X115316365Y-73269973D01*
X115169973Y-73416365D01*
X114997835Y-73531384D01*
X114997834Y-73531385D01*
X114997833Y-73531385D01*
X114806564Y-73610611D01*
X114603516Y-73651000D01*
X114396484Y-73651000D01*
X114193436Y-73610611D01*
X114002167Y-73531385D01*
X114002166Y-73531385D01*
X114002165Y-73531384D01*
X113830027Y-73416365D01*
X113683635Y-73269973D01*
X113568616Y-73097835D01*
X113559189Y-73075076D01*
X113489389Y-72906564D01*
X113449000Y-72703516D01*
X113449000Y-72496484D01*
X113489389Y-72293436D01*
X113568615Y-72102167D01*
X113683635Y-71930027D01*
X113830027Y-71783635D01*
X113881862Y-71749000D01*
X114002165Y-71668616D01*
X114002167Y-71668615D01*
X114193436Y-71589389D01*
X114396484Y-71549000D01*
X114603516Y-71549000D01*
X114806564Y-71589389D01*
X114806564Y-71589389D01*
G37*
G36*
X140671000Y-73451000D02*
G01*
X138969000Y-73451000D01*
X138969000Y-71749000D01*
X140671000Y-71749000D01*
X140671000Y-73451000D01*
X140671000Y-73451000D01*
G37*
G36*
X132448228Y-71781703D02*
G01*
X132603100Y-71845853D01*
X132742481Y-71938985D01*
X132861015Y-72057519D01*
X132954147Y-72196900D01*
X133018297Y-72351772D01*
X133051000Y-72516184D01*
X133051000Y-72683816D01*
X133018297Y-72848228D01*
X132954147Y-73003100D01*
X132861015Y-73142481D01*
X132742481Y-73261015D01*
X132603100Y-73354147D01*
X132448228Y-73418297D01*
X132283816Y-73451000D01*
X132116184Y-73451000D01*
X131951772Y-73418297D01*
X131796900Y-73354147D01*
X131657519Y-73261015D01*
X131538985Y-73142481D01*
X131445853Y-73003100D01*
X131381703Y-72848228D01*
X131349000Y-72683816D01*
X131349000Y-72516184D01*
X131381703Y-72351772D01*
X131445853Y-72196900D01*
X131538985Y-72057519D01*
X131657519Y-71938985D01*
X131796900Y-71845853D01*
X131951772Y-71781703D01*
X132116184Y-71749000D01*
X132283816Y-71749000D01*
X132448228Y-71781703D01*
X132448228Y-71781703D01*
G37*
G36*
X127686823Y-71761313D02*
G01*
X127847242Y-71809976D01*
X127914361Y-71845852D01*
X127995078Y-71888996D01*
X128124659Y-71995341D01*
X128231004Y-72124922D01*
X128231005Y-72124924D01*
X128310024Y-72272758D01*
X128358687Y-72433177D01*
X128375117Y-72600000D01*
X128358687Y-72766823D01*
X128310024Y-72927242D01*
X128269477Y-73003100D01*
X128231004Y-73075078D01*
X128124659Y-73204659D01*
X127995078Y-73311004D01*
X127995076Y-73311005D01*
X127847242Y-73390024D01*
X127686823Y-73438687D01*
X127561804Y-73451000D01*
X127478196Y-73451000D01*
X127353177Y-73438687D01*
X127192758Y-73390024D01*
X127044924Y-73311005D01*
X127044922Y-73311004D01*
X126915341Y-73204659D01*
X126808996Y-73075078D01*
X126770523Y-73003100D01*
X126729976Y-72927242D01*
X126681313Y-72766823D01*
X126664883Y-72600000D01*
X126681313Y-72433177D01*
X126729976Y-72272758D01*
X126808995Y-72124924D01*
X126808996Y-72124922D01*
X126915341Y-71995341D01*
X127044922Y-71888996D01*
X127125639Y-71845852D01*
X127192758Y-71809976D01*
X127353177Y-71761313D01*
X127478196Y-71749000D01*
X127561804Y-71749000D01*
X127686823Y-71761313D01*
X127686823Y-71761313D01*
G37*
G36*
X120751000Y-73451000D02*
G01*
X119049000Y-73451000D01*
X119049000Y-71749000D01*
X120751000Y-71749000D01*
X120751000Y-73451000D01*
X120751000Y-73451000D01*
G37*
G36*
X102548228Y-71781703D02*
G01*
X102703100Y-71845853D01*
X102842481Y-71938985D01*
X102961015Y-72057519D01*
X103054147Y-72196900D01*
X103118297Y-72351772D01*
X103151000Y-72516184D01*
X103151000Y-72683816D01*
X103118297Y-72848228D01*
X103054147Y-73003100D01*
X102961015Y-73142481D01*
X102842481Y-73261015D01*
X102703100Y-73354147D01*
X102548228Y-73418297D01*
X102383816Y-73451000D01*
X102216184Y-73451000D01*
X102051772Y-73418297D01*
X101896900Y-73354147D01*
X101757519Y-73261015D01*
X101638985Y-73142481D01*
X101545853Y-73003100D01*
X101481703Y-72848228D01*
X101449000Y-72683816D01*
X101449000Y-72516184D01*
X101481703Y-72351772D01*
X101545853Y-72196900D01*
X101638985Y-72057519D01*
X101757519Y-71938985D01*
X101896900Y-71845853D01*
X102051772Y-71781703D01*
X102216184Y-71749000D01*
X102383816Y-71749000D01*
X102548228Y-71781703D01*
X102548228Y-71781703D01*
G37*
G36*
X92306823Y-71761313D02*
G01*
X92467242Y-71809976D01*
X92534361Y-71845852D01*
X92615078Y-71888996D01*
X92744659Y-71995341D01*
X92851004Y-72124922D01*
X92851005Y-72124924D01*
X92930024Y-72272758D01*
X92978687Y-72433177D01*
X92995117Y-72600000D01*
X92978687Y-72766823D01*
X92930024Y-72927242D01*
X92889477Y-73003100D01*
X92851004Y-73075078D01*
X92744659Y-73204659D01*
X92615078Y-73311004D01*
X92615076Y-73311005D01*
X92467242Y-73390024D01*
X92306823Y-73438687D01*
X92181804Y-73451000D01*
X92098196Y-73451000D01*
X91973177Y-73438687D01*
X91812758Y-73390024D01*
X91664924Y-73311005D01*
X91664922Y-73311004D01*
X91535341Y-73204659D01*
X91428996Y-73075078D01*
X91390523Y-73003100D01*
X91349976Y-72927242D01*
X91301313Y-72766823D01*
X91284883Y-72600000D01*
X91301313Y-72433177D01*
X91349976Y-72272758D01*
X91428995Y-72124924D01*
X91428996Y-72124922D01*
X91535341Y-71995341D01*
X91664922Y-71888996D01*
X91745639Y-71845852D01*
X91812758Y-71809976D01*
X91973177Y-71761313D01*
X92098196Y-71749000D01*
X92181804Y-71749000D01*
X92306823Y-71761313D01*
X92306823Y-71761313D01*
G37*
G36*
X114806564Y-67089389D02*
G01*
X114997833Y-67168615D01*
X114997835Y-67168616D01*
X115129499Y-67256591D01*
X115169973Y-67283635D01*
X115316365Y-67430027D01*
X115431385Y-67602167D01*
X115510611Y-67793436D01*
X115551000Y-67996484D01*
X115551000Y-68203516D01*
X115510611Y-68406564D01*
X115432637Y-68594811D01*
X115431384Y-68597835D01*
X115316365Y-68769973D01*
X115169973Y-68916365D01*
X114997835Y-69031384D01*
X114997834Y-69031385D01*
X114997833Y-69031385D01*
X114806564Y-69110611D01*
X114603516Y-69151000D01*
X114396484Y-69151000D01*
X114193436Y-69110611D01*
X114002167Y-69031385D01*
X114002166Y-69031385D01*
X114002165Y-69031384D01*
X113830027Y-68916365D01*
X113683635Y-68769973D01*
X113568616Y-68597835D01*
X113567363Y-68594811D01*
X113489389Y-68406564D01*
X113449000Y-68203516D01*
X113449000Y-67996484D01*
X113489389Y-67793436D01*
X113568615Y-67602167D01*
X113683635Y-67430027D01*
X113830027Y-67283635D01*
X113870501Y-67256591D01*
X114002165Y-67168616D01*
X114002167Y-67168615D01*
X114193436Y-67089389D01*
X114396484Y-67049000D01*
X114603516Y-67049000D01*
X114806564Y-67089389D01*
X114806564Y-67089389D01*
G37*
G36*
X108306564Y-67089389D02*
G01*
X108497833Y-67168615D01*
X108497835Y-67168616D01*
X108629499Y-67256591D01*
X108669973Y-67283635D01*
X108816365Y-67430027D01*
X108931385Y-67602167D01*
X109010611Y-67793436D01*
X109051000Y-67996484D01*
X109051000Y-68203516D01*
X109010611Y-68406564D01*
X108932637Y-68594811D01*
X108931384Y-68597835D01*
X108816365Y-68769973D01*
X108669973Y-68916365D01*
X108497835Y-69031384D01*
X108497834Y-69031385D01*
X108497833Y-69031385D01*
X108306564Y-69110611D01*
X108103516Y-69151000D01*
X107896484Y-69151000D01*
X107693436Y-69110611D01*
X107502167Y-69031385D01*
X107502166Y-69031385D01*
X107502165Y-69031384D01*
X107330027Y-68916365D01*
X107183635Y-68769973D01*
X107068616Y-68597835D01*
X107067363Y-68594811D01*
X106989389Y-68406564D01*
X106949000Y-68203516D01*
X106949000Y-67996484D01*
X106989389Y-67793436D01*
X107068615Y-67602167D01*
X107183635Y-67430027D01*
X107330027Y-67283635D01*
X107370501Y-67256591D01*
X107502165Y-67168616D01*
X107502167Y-67168615D01*
X107693436Y-67089389D01*
X107896484Y-67049000D01*
X108103516Y-67049000D01*
X108306564Y-67089389D01*
X108306564Y-67089389D01*
G37*
G36*
X80875880Y-64359776D02*
G01*
X81256593Y-64435504D01*
X81666249Y-64605189D01*
X82034929Y-64851534D01*
X82348466Y-65165071D01*
X82594811Y-65533751D01*
X82764496Y-65943407D01*
X82851000Y-66378296D01*
X82851000Y-66821704D01*
X82764496Y-67256593D01*
X82594811Y-67666249D01*
X82348466Y-68034929D01*
X82034929Y-68348466D01*
X81666249Y-68594811D01*
X81256593Y-68764496D01*
X80875880Y-68840224D01*
X80821705Y-68851000D01*
X80378295Y-68851000D01*
X80324120Y-68840224D01*
X79943407Y-68764496D01*
X79533751Y-68594811D01*
X79165071Y-68348466D01*
X78851534Y-68034929D01*
X78605189Y-67666249D01*
X78435504Y-67256593D01*
X78349000Y-66821704D01*
X78349000Y-66378296D01*
X78435504Y-65943407D01*
X78605189Y-65533751D01*
X78851534Y-65165071D01*
X79165071Y-64851534D01*
X79533751Y-64605189D01*
X79943407Y-64435504D01*
X80324120Y-64359776D01*
X80378295Y-64349000D01*
X80821705Y-64349000D01*
X80875880Y-64359776D01*
X80875880Y-64359776D01*
G37*
G36*
X144475880Y-64359776D02*
G01*
X144856593Y-64435504D01*
X145266249Y-64605189D01*
X145634929Y-64851534D01*
X145948466Y-65165071D01*
X146194811Y-65533751D01*
X146364496Y-65943407D01*
X146451000Y-66378296D01*
X146451000Y-66821704D01*
X146364496Y-67256593D01*
X146194811Y-67666249D01*
X145948466Y-68034929D01*
X145634929Y-68348466D01*
X145266249Y-68594811D01*
X144856593Y-68764496D01*
X144475880Y-68840224D01*
X144421705Y-68851000D01*
X143978295Y-68851000D01*
X143924120Y-68840224D01*
X143543407Y-68764496D01*
X143133751Y-68594811D01*
X142765071Y-68348466D01*
X142451534Y-68034929D01*
X142205189Y-67666249D01*
X142035504Y-67256593D01*
X141949000Y-66821704D01*
X141949000Y-66378296D01*
X142035504Y-65943407D01*
X142205189Y-65533751D01*
X142451534Y-65165071D01*
X142765071Y-64851534D01*
X143133751Y-64605189D01*
X143543407Y-64435504D01*
X143924120Y-64359776D01*
X143978295Y-64349000D01*
X144421705Y-64349000D01*
X144475880Y-64359776D01*
X144475880Y-64359776D01*
G37*
M02*
