G04 #@! TF.GenerationSoftware,KiCad,Pcbnew,(5.1.4-0-10_14)*
G04 #@! TF.CreationDate,2019-11-17T16:04:33+00:00*
G04 #@! TF.ProjectId,SELE_ACS,53454c45-5f41-4435-932e-6b696361645f,rev?*
G04 #@! TF.SameCoordinates,Original*
G04 #@! TF.FileFunction,Legend,Top*
G04 #@! TF.FilePolarity,Positive*
%FSLAX46Y46*%
G04 Gerber Fmt 4.6, Leading zero omitted, Abs format (unit mm)*
G04 Created by KiCad (PCBNEW (5.1.4-0-10_14)) date 2019-11-17 16:04:33*
%MOMM*%
%LPD*%
G04 APERTURE LIST*
%ADD10C,0.200000*%
%ADD11C,0.120000*%
G04 APERTURE END LIST*
D10*
X132152380Y-101452380D02*
X131819047Y-100976190D01*
X131580952Y-101452380D02*
X131580952Y-100452380D01*
X131961904Y-100452380D01*
X132057142Y-100500000D01*
X132104761Y-100547619D01*
X132152380Y-100642857D01*
X132152380Y-100785714D01*
X132104761Y-100880952D01*
X132057142Y-100928571D01*
X131961904Y-100976190D01*
X131580952Y-100976190D01*
X132533333Y-101404761D02*
X132676190Y-101452380D01*
X132914285Y-101452380D01*
X133009523Y-101404761D01*
X133057142Y-101357142D01*
X133104761Y-101261904D01*
X133104761Y-101166666D01*
X133057142Y-101071428D01*
X133009523Y-101023809D01*
X132914285Y-100976190D01*
X132723809Y-100928571D01*
X132628571Y-100880952D01*
X132580952Y-100833333D01*
X132533333Y-100738095D01*
X132533333Y-100642857D01*
X132580952Y-100547619D01*
X132628571Y-100500000D01*
X132723809Y-100452380D01*
X132961904Y-100452380D01*
X133104761Y-100500000D01*
X133390476Y-100452380D02*
X133961904Y-100452380D01*
X133676190Y-101452380D02*
X133676190Y-100452380D01*
X141638095Y-100500000D02*
X141542857Y-100452380D01*
X141400000Y-100452380D01*
X141257142Y-100500000D01*
X141161904Y-100595238D01*
X141114285Y-100690476D01*
X141066666Y-100880952D01*
X141066666Y-101023809D01*
X141114285Y-101214285D01*
X141161904Y-101309523D01*
X141257142Y-101404761D01*
X141400000Y-101452380D01*
X141495238Y-101452380D01*
X141638095Y-101404761D01*
X141685714Y-101357142D01*
X141685714Y-101023809D01*
X141495238Y-101023809D01*
X142114285Y-101452380D02*
X142114285Y-100452380D01*
X142685714Y-101452380D01*
X142685714Y-100452380D01*
X143161904Y-101452380D02*
X143161904Y-100452380D01*
X143400000Y-100452380D01*
X143542857Y-100500000D01*
X143638095Y-100595238D01*
X143685714Y-100690476D01*
X143733333Y-100880952D01*
X143733333Y-101023809D01*
X143685714Y-101214285D01*
X143638095Y-101309523D01*
X143542857Y-101404761D01*
X143400000Y-101452380D01*
X143161904Y-101452380D01*
X141066666Y-95352380D02*
X141400000Y-96352380D01*
X141733333Y-95352380D01*
X142638095Y-96257142D02*
X142590476Y-96304761D01*
X142447619Y-96352380D01*
X142352380Y-96352380D01*
X142209523Y-96304761D01*
X142114285Y-96209523D01*
X142066666Y-96114285D01*
X142019047Y-95923809D01*
X142019047Y-95780952D01*
X142066666Y-95590476D01*
X142114285Y-95495238D01*
X142209523Y-95400000D01*
X142352380Y-95352380D01*
X142447619Y-95352380D01*
X142590476Y-95400000D01*
X142638095Y-95447619D01*
X143638095Y-96257142D02*
X143590476Y-96304761D01*
X143447619Y-96352380D01*
X143352380Y-96352380D01*
X143209523Y-96304761D01*
X143114285Y-96209523D01*
X143066666Y-96114285D01*
X143019047Y-95923809D01*
X143019047Y-95780952D01*
X143066666Y-95590476D01*
X143114285Y-95495238D01*
X143209523Y-95400000D01*
X143352380Y-95352380D01*
X143447619Y-95352380D01*
X143590476Y-95400000D01*
X143638095Y-95447619D01*
X141028571Y-98952380D02*
X141028571Y-97952380D01*
X141361904Y-98666666D01*
X141695238Y-97952380D01*
X141695238Y-98952380D01*
X142171428Y-98952380D02*
X142171428Y-97952380D01*
X142600000Y-98904761D02*
X142742857Y-98952380D01*
X142980952Y-98952380D01*
X143076190Y-98904761D01*
X143123809Y-98857142D01*
X143171428Y-98761904D01*
X143171428Y-98666666D01*
X143123809Y-98571428D01*
X143076190Y-98523809D01*
X142980952Y-98476190D01*
X142790476Y-98428571D01*
X142695238Y-98380952D01*
X142647619Y-98333333D01*
X142600000Y-98238095D01*
X142600000Y-98142857D01*
X142647619Y-98047619D01*
X142695238Y-98000000D01*
X142790476Y-97952380D01*
X143028571Y-97952380D01*
X143171428Y-98000000D01*
X143790476Y-97952380D02*
X143980952Y-97952380D01*
X144076190Y-98000000D01*
X144171428Y-98095238D01*
X144219047Y-98285714D01*
X144219047Y-98619047D01*
X144171428Y-98809523D01*
X144076190Y-98904761D01*
X143980952Y-98952380D01*
X143790476Y-98952380D01*
X143695238Y-98904761D01*
X143600000Y-98809523D01*
X143552380Y-98619047D01*
X143552380Y-98285714D01*
X143600000Y-98095238D01*
X143695238Y-98000000D01*
X143790476Y-97952380D01*
X131414285Y-98904761D02*
X131557142Y-98952380D01*
X131795238Y-98952380D01*
X131890476Y-98904761D01*
X131938095Y-98857142D01*
X131985714Y-98761904D01*
X131985714Y-98666666D01*
X131938095Y-98571428D01*
X131890476Y-98523809D01*
X131795238Y-98476190D01*
X131604761Y-98428571D01*
X131509523Y-98380952D01*
X131461904Y-98333333D01*
X131414285Y-98238095D01*
X131414285Y-98142857D01*
X131461904Y-98047619D01*
X131509523Y-98000000D01*
X131604761Y-97952380D01*
X131842857Y-97952380D01*
X131985714Y-98000000D01*
X132985714Y-98857142D02*
X132938095Y-98904761D01*
X132795238Y-98952380D01*
X132700000Y-98952380D01*
X132557142Y-98904761D01*
X132461904Y-98809523D01*
X132414285Y-98714285D01*
X132366666Y-98523809D01*
X132366666Y-98380952D01*
X132414285Y-98190476D01*
X132461904Y-98095238D01*
X132557142Y-98000000D01*
X132700000Y-97952380D01*
X132795238Y-97952380D01*
X132938095Y-98000000D01*
X132985714Y-98047619D01*
X133414285Y-98952380D02*
X133414285Y-97952380D01*
X133985714Y-98952380D02*
X133557142Y-98380952D01*
X133985714Y-97952380D02*
X133414285Y-98523809D01*
X130828571Y-96352380D02*
X130828571Y-95352380D01*
X131161904Y-96066666D01*
X131495238Y-95352380D01*
X131495238Y-96352380D01*
X131971428Y-96352380D02*
X131971428Y-95352380D01*
X132400000Y-96304761D02*
X132542857Y-96352380D01*
X132780952Y-96352380D01*
X132876190Y-96304761D01*
X132923809Y-96257142D01*
X132971428Y-96161904D01*
X132971428Y-96066666D01*
X132923809Y-95971428D01*
X132876190Y-95923809D01*
X132780952Y-95876190D01*
X132590476Y-95828571D01*
X132495238Y-95780952D01*
X132447619Y-95733333D01*
X132400000Y-95638095D01*
X132400000Y-95542857D01*
X132447619Y-95447619D01*
X132495238Y-95400000D01*
X132590476Y-95352380D01*
X132828571Y-95352380D01*
X132971428Y-95400000D01*
X133590476Y-95352380D02*
X133780952Y-95352380D01*
X133876190Y-95400000D01*
X133971428Y-95495238D01*
X134019047Y-95685714D01*
X134019047Y-96019047D01*
X133971428Y-96209523D01*
X133876190Y-96304761D01*
X133780952Y-96352380D01*
X133590476Y-96352380D01*
X133495238Y-96304761D01*
X133400000Y-96209523D01*
X133352380Y-96019047D01*
X133352380Y-95685714D01*
X133400000Y-95495238D01*
X133495238Y-95400000D01*
X133590476Y-95352380D01*
X93852380Y-100795238D02*
X93376190Y-101128571D01*
X93852380Y-101366666D02*
X92852380Y-101366666D01*
X92852380Y-100985714D01*
X92900000Y-100890476D01*
X92947619Y-100842857D01*
X93042857Y-100795238D01*
X93185714Y-100795238D01*
X93280952Y-100842857D01*
X93328571Y-100890476D01*
X93376190Y-100985714D01*
X93376190Y-101366666D01*
X93804761Y-100414285D02*
X93852380Y-100271428D01*
X93852380Y-100033333D01*
X93804761Y-99938095D01*
X93757142Y-99890476D01*
X93661904Y-99842857D01*
X93566666Y-99842857D01*
X93471428Y-99890476D01*
X93423809Y-99938095D01*
X93376190Y-100033333D01*
X93328571Y-100223809D01*
X93280952Y-100319047D01*
X93233333Y-100366666D01*
X93138095Y-100414285D01*
X93042857Y-100414285D01*
X92947619Y-100366666D01*
X92900000Y-100319047D01*
X92852380Y-100223809D01*
X92852380Y-99985714D01*
X92900000Y-99842857D01*
X93185714Y-98985714D02*
X93852380Y-98985714D01*
X92804761Y-99223809D02*
X93519047Y-99461904D01*
X93519047Y-98842857D01*
X93280952Y-98319047D02*
X93233333Y-98414285D01*
X93185714Y-98461904D01*
X93090476Y-98509523D01*
X93042857Y-98509523D01*
X92947619Y-98461904D01*
X92900000Y-98414285D01*
X92852380Y-98319047D01*
X92852380Y-98128571D01*
X92900000Y-98033333D01*
X92947619Y-97985714D01*
X93042857Y-97938095D01*
X93090476Y-97938095D01*
X93185714Y-97985714D01*
X93233333Y-98033333D01*
X93280952Y-98128571D01*
X93280952Y-98319047D01*
X93328571Y-98414285D01*
X93376190Y-98461904D01*
X93471428Y-98509523D01*
X93661904Y-98509523D01*
X93757142Y-98461904D01*
X93804761Y-98414285D01*
X93852380Y-98319047D01*
X93852380Y-98128571D01*
X93804761Y-98033333D01*
X93757142Y-97985714D01*
X93661904Y-97938095D01*
X93471428Y-97938095D01*
X93376190Y-97985714D01*
X93328571Y-98033333D01*
X93280952Y-98128571D01*
X92852380Y-97033333D02*
X92852380Y-97509523D01*
X93328571Y-97557142D01*
X93280952Y-97509523D01*
X93233333Y-97414285D01*
X93233333Y-97176190D01*
X93280952Y-97080952D01*
X93328571Y-97033333D01*
X93423809Y-96985714D01*
X93661904Y-96985714D01*
X93757142Y-97033333D01*
X93804761Y-97080952D01*
X93852380Y-97176190D01*
X93852380Y-97414285D01*
X93804761Y-97509523D01*
X93757142Y-97557142D01*
X93328571Y-79666666D02*
X93328571Y-80000000D01*
X93852380Y-80000000D02*
X92852380Y-80000000D01*
X92852380Y-79523809D01*
X92852380Y-79285714D02*
X92852380Y-78714285D01*
X93852380Y-79000000D02*
X92852380Y-79000000D01*
X92947619Y-78428571D02*
X92900000Y-78380952D01*
X92852380Y-78285714D01*
X92852380Y-78047619D01*
X92900000Y-77952380D01*
X92947619Y-77904761D01*
X93042857Y-77857142D01*
X93138095Y-77857142D01*
X93280952Y-77904761D01*
X93852380Y-78476190D01*
X93852380Y-77857142D01*
X92852380Y-77523809D02*
X92852380Y-76904761D01*
X93233333Y-77238095D01*
X93233333Y-77095238D01*
X93280952Y-77000000D01*
X93328571Y-76952380D01*
X93423809Y-76904761D01*
X93661904Y-76904761D01*
X93757142Y-76952380D01*
X93804761Y-77000000D01*
X93852380Y-77095238D01*
X93852380Y-77380952D01*
X93804761Y-77476190D01*
X93757142Y-77523809D01*
X92947619Y-76523809D02*
X92900000Y-76476190D01*
X92852380Y-76380952D01*
X92852380Y-76142857D01*
X92900000Y-76047619D01*
X92947619Y-76000000D01*
X93042857Y-75952380D01*
X93138095Y-75952380D01*
X93280952Y-76000000D01*
X93852380Y-76571428D01*
X93852380Y-75952380D01*
X99009523Y-82252380D02*
X98533333Y-82252380D01*
X98485714Y-82728571D01*
X98533333Y-82680952D01*
X98628571Y-82633333D01*
X98866666Y-82633333D01*
X98961904Y-82680952D01*
X99009523Y-82728571D01*
X99057142Y-82823809D01*
X99057142Y-83061904D01*
X99009523Y-83157142D01*
X98961904Y-83204761D01*
X98866666Y-83252380D01*
X98628571Y-83252380D01*
X98533333Y-83204761D01*
X98485714Y-83157142D01*
X99342857Y-82252380D02*
X99676190Y-83252380D01*
X100009523Y-82252380D01*
X99033333Y-80652380D02*
X98700000Y-80176190D01*
X98461904Y-80652380D02*
X98461904Y-79652380D01*
X98842857Y-79652380D01*
X98938095Y-79700000D01*
X98985714Y-79747619D01*
X99033333Y-79842857D01*
X99033333Y-79985714D01*
X98985714Y-80080952D01*
X98938095Y-80128571D01*
X98842857Y-80176190D01*
X98461904Y-80176190D01*
X99366666Y-79652380D02*
X100033333Y-80652380D01*
X100033333Y-79652380D02*
X99366666Y-80652380D01*
X98438095Y-77052380D02*
X99009523Y-77052380D01*
X98723809Y-78052380D02*
X98723809Y-77052380D01*
X99247619Y-77052380D02*
X99914285Y-78052380D01*
X99914285Y-77052380D02*
X99247619Y-78052380D01*
X99038095Y-98100000D02*
X98942857Y-98052380D01*
X98800000Y-98052380D01*
X98657142Y-98100000D01*
X98561904Y-98195238D01*
X98514285Y-98290476D01*
X98466666Y-98480952D01*
X98466666Y-98623809D01*
X98514285Y-98814285D01*
X98561904Y-98909523D01*
X98657142Y-99004761D01*
X98800000Y-99052380D01*
X98895238Y-99052380D01*
X99038095Y-99004761D01*
X99085714Y-98957142D01*
X99085714Y-98623809D01*
X98895238Y-98623809D01*
X99514285Y-99052380D02*
X99514285Y-98052380D01*
X100085714Y-99052380D01*
X100085714Y-98052380D01*
X100561904Y-99052380D02*
X100561904Y-98052380D01*
X100800000Y-98052380D01*
X100942857Y-98100000D01*
X101038095Y-98195238D01*
X101085714Y-98290476D01*
X101133333Y-98480952D01*
X101133333Y-98623809D01*
X101085714Y-98814285D01*
X101038095Y-98909523D01*
X100942857Y-99004761D01*
X100800000Y-99052380D01*
X100561904Y-99052380D01*
X98980952Y-96452380D02*
X98409523Y-96452380D01*
X98695238Y-96452380D02*
X98695238Y-95452380D01*
X98600000Y-95595238D01*
X98504761Y-95690476D01*
X98409523Y-95738095D01*
X99361904Y-95547619D02*
X99409523Y-95500000D01*
X99504761Y-95452380D01*
X99742857Y-95452380D01*
X99838095Y-95500000D01*
X99885714Y-95547619D01*
X99933333Y-95642857D01*
X99933333Y-95738095D01*
X99885714Y-95880952D01*
X99314285Y-96452380D01*
X99933333Y-96452380D01*
X100219047Y-95452380D02*
X100552380Y-96452380D01*
X100885714Y-95452380D01*
X98871428Y-93528571D02*
X99014285Y-93576190D01*
X99061904Y-93623809D01*
X99109523Y-93719047D01*
X99109523Y-93861904D01*
X99061904Y-93957142D01*
X99014285Y-94004761D01*
X98919047Y-94052380D01*
X98538095Y-94052380D01*
X98538095Y-93052380D01*
X98871428Y-93052380D01*
X98966666Y-93100000D01*
X99014285Y-93147619D01*
X99061904Y-93242857D01*
X99061904Y-93338095D01*
X99014285Y-93433333D01*
X98966666Y-93480952D01*
X98871428Y-93528571D01*
X98538095Y-93528571D01*
X93161904Y-91166666D02*
X93638095Y-91166666D01*
X93066666Y-91452380D02*
X93400000Y-90452380D01*
X93733333Y-91452380D01*
X80558571Y-95285714D02*
X80730000Y-95342857D01*
X81015714Y-95342857D01*
X81130000Y-95285714D01*
X81187142Y-95228571D01*
X81244285Y-95114285D01*
X81244285Y-95000000D01*
X81187142Y-94885714D01*
X81130000Y-94828571D01*
X81015714Y-94771428D01*
X80787142Y-94714285D01*
X80672857Y-94657142D01*
X80615714Y-94600000D01*
X80558571Y-94485714D01*
X80558571Y-94371428D01*
X80615714Y-94257142D01*
X80672857Y-94200000D01*
X80787142Y-94142857D01*
X81072857Y-94142857D01*
X81244285Y-94200000D01*
X81758571Y-94714285D02*
X82158571Y-94714285D01*
X82330000Y-95342857D02*
X81758571Y-95342857D01*
X81758571Y-94142857D01*
X82330000Y-94142857D01*
X83415714Y-95342857D02*
X82844285Y-95342857D01*
X82844285Y-94142857D01*
X83815714Y-94714285D02*
X84215714Y-94714285D01*
X84387142Y-95342857D02*
X83815714Y-95342857D01*
X83815714Y-94142857D01*
X84387142Y-94142857D01*
X81015714Y-96714285D02*
X80615714Y-96714285D01*
X80615714Y-97342857D02*
X80615714Y-96142857D01*
X81187142Y-96142857D01*
X81644285Y-96714285D02*
X82044285Y-96714285D01*
X82215714Y-97342857D02*
X81644285Y-97342857D01*
X81644285Y-96142857D01*
X82215714Y-96142857D01*
X82730000Y-96142857D02*
X82730000Y-97114285D01*
X82787142Y-97228571D01*
X82844285Y-97285714D01*
X82958571Y-97342857D01*
X83187142Y-97342857D01*
X83301428Y-97285714D01*
X83358571Y-97228571D01*
X83415714Y-97114285D01*
X83415714Y-96142857D01*
X83987142Y-97342857D02*
X83987142Y-96142857D01*
X84444285Y-96142857D01*
X84558571Y-96200000D01*
X84615714Y-96257142D01*
X84672857Y-96371428D01*
X84672857Y-96542857D01*
X84615714Y-96657142D01*
X84558571Y-96714285D01*
X84444285Y-96771428D01*
X83987142Y-96771428D01*
X80558571Y-99000000D02*
X81130000Y-99000000D01*
X80444285Y-99342857D02*
X80844285Y-98142857D01*
X81244285Y-99342857D01*
X81472857Y-98142857D02*
X81872857Y-99342857D01*
X82272857Y-98142857D01*
X83358571Y-99342857D02*
X82958571Y-98771428D01*
X82672857Y-99342857D02*
X82672857Y-98142857D01*
X83130000Y-98142857D01*
X83244285Y-98200000D01*
X83301428Y-98257142D01*
X83358571Y-98371428D01*
X83358571Y-98542857D01*
X83301428Y-98657142D01*
X83244285Y-98714285D01*
X83130000Y-98771428D01*
X82672857Y-98771428D01*
X85472857Y-99342857D02*
X85072857Y-98771428D01*
X84787142Y-99342857D02*
X84787142Y-98142857D01*
X85244285Y-98142857D01*
X85358571Y-98200000D01*
X85415714Y-98257142D01*
X85472857Y-98371428D01*
X85472857Y-98542857D01*
X85415714Y-98657142D01*
X85358571Y-98714285D01*
X85244285Y-98771428D01*
X84787142Y-98771428D01*
X85930000Y-99285714D02*
X86101428Y-99342857D01*
X86387142Y-99342857D01*
X86501428Y-99285714D01*
X86558571Y-99228571D01*
X86615714Y-99114285D01*
X86615714Y-99000000D01*
X86558571Y-98885714D01*
X86501428Y-98828571D01*
X86387142Y-98771428D01*
X86158571Y-98714285D01*
X86044285Y-98657142D01*
X85987142Y-98600000D01*
X85930000Y-98485714D01*
X85930000Y-98371428D01*
X85987142Y-98257142D01*
X86044285Y-98200000D01*
X86158571Y-98142857D01*
X86444285Y-98142857D01*
X86615714Y-98200000D01*
X87644285Y-98542857D02*
X87644285Y-99342857D01*
X87358571Y-98085714D02*
X87072857Y-98942857D01*
X87815714Y-98942857D01*
X88444285Y-98657142D02*
X88330000Y-98600000D01*
X88272857Y-98542857D01*
X88215714Y-98428571D01*
X88215714Y-98371428D01*
X88272857Y-98257142D01*
X88330000Y-98200000D01*
X88444285Y-98142857D01*
X88672857Y-98142857D01*
X88787142Y-98200000D01*
X88844285Y-98257142D01*
X88901428Y-98371428D01*
X88901428Y-98428571D01*
X88844285Y-98542857D01*
X88787142Y-98600000D01*
X88672857Y-98657142D01*
X88444285Y-98657142D01*
X88330000Y-98714285D01*
X88272857Y-98771428D01*
X88215714Y-98885714D01*
X88215714Y-99114285D01*
X88272857Y-99228571D01*
X88330000Y-99285714D01*
X88444285Y-99342857D01*
X88672857Y-99342857D01*
X88787142Y-99285714D01*
X88844285Y-99228571D01*
X88901428Y-99114285D01*
X88901428Y-98885714D01*
X88844285Y-98771428D01*
X88787142Y-98714285D01*
X88672857Y-98657142D01*
X89987142Y-98142857D02*
X89415714Y-98142857D01*
X89358571Y-98714285D01*
X89415714Y-98657142D01*
X89530000Y-98600000D01*
X89815714Y-98600000D01*
X89930000Y-98657142D01*
X89987142Y-98714285D01*
X90044285Y-98828571D01*
X90044285Y-99114285D01*
X89987142Y-99228571D01*
X89930000Y-99285714D01*
X89815714Y-99342857D01*
X89530000Y-99342857D01*
X89415714Y-99285714D01*
X89358571Y-99228571D01*
X80444285Y-100142857D02*
X80844285Y-101342857D01*
X81244285Y-100142857D01*
X81872857Y-100142857D02*
X81987142Y-100142857D01*
X82101428Y-100200000D01*
X82158571Y-100257142D01*
X82215714Y-100371428D01*
X82272857Y-100600000D01*
X82272857Y-100885714D01*
X82215714Y-101114285D01*
X82158571Y-101228571D01*
X82101428Y-101285714D01*
X81987142Y-101342857D01*
X81872857Y-101342857D01*
X81758571Y-101285714D01*
X81701428Y-101228571D01*
X81644285Y-101114285D01*
X81587142Y-100885714D01*
X81587142Y-100600000D01*
X81644285Y-100371428D01*
X81701428Y-100257142D01*
X81758571Y-100200000D01*
X81872857Y-100142857D01*
X82787142Y-101228571D02*
X82844285Y-101285714D01*
X82787142Y-101342857D01*
X82730000Y-101285714D01*
X82787142Y-101228571D01*
X82787142Y-101342857D01*
X83987142Y-101342857D02*
X83301428Y-101342857D01*
X83644285Y-101342857D02*
X83644285Y-100142857D01*
X83530000Y-100314285D01*
X83415714Y-100428571D01*
X83301428Y-100485714D01*
D11*
X97530000Y-86630000D02*
X96200000Y-86630000D01*
X97530000Y-85300000D02*
X97530000Y-86630000D01*
X94870000Y-84030000D02*
X97530000Y-84030000D01*
X94870000Y-76350000D02*
X94870000Y-84030000D01*
X97530000Y-76350000D02*
X94870000Y-76350000D01*
X97530000Y-84030000D02*
X97530000Y-76350000D01*
X93180000Y-72600000D02*
X93950000Y-72600000D01*
X101260000Y-72600000D02*
X100490000Y-72600000D01*
X93950000Y-73970000D02*
X100490000Y-73970000D01*
X93950000Y-71230000D02*
X93950000Y-73970000D01*
X100490000Y-71230000D02*
X93950000Y-71230000D01*
X100490000Y-73970000D02*
X100490000Y-71230000D01*
X126360000Y-71270000D02*
X124710000Y-71270000D01*
X126360000Y-106950000D02*
X126360000Y-71270000D01*
X121060000Y-106950000D02*
X126360000Y-106950000D01*
X121060000Y-71270000D02*
X121060000Y-106950000D01*
X122710000Y-71270000D02*
X121060000Y-71270000D01*
X124710000Y-71270000D02*
G75*
G02X122710000Y-71270000I-1000000J0D01*
G01*
X132980000Y-105700000D02*
X133750000Y-105700000D01*
X141060000Y-105700000D02*
X140290000Y-105700000D01*
X133750000Y-107070000D02*
X140290000Y-107070000D01*
X133750000Y-104330000D02*
X133750000Y-107070000D01*
X140290000Y-104330000D02*
X133750000Y-104330000D01*
X140290000Y-107070000D02*
X140290000Y-104330000D01*
X114620000Y-105600000D02*
X113850000Y-105600000D01*
X106540000Y-105600000D02*
X107310000Y-105600000D01*
X113850000Y-104230000D02*
X107310000Y-104230000D01*
X113850000Y-106970000D02*
X113850000Y-104230000D01*
X107310000Y-106970000D02*
X113850000Y-106970000D01*
X107310000Y-104230000D02*
X107310000Y-106970000D01*
X94770000Y-89670000D02*
X96100000Y-89670000D01*
X94770000Y-91000000D02*
X94770000Y-89670000D01*
X94770000Y-92270000D02*
X97430000Y-92270000D01*
X97430000Y-92270000D02*
X97430000Y-99950000D01*
X94770000Y-92270000D02*
X94770000Y-99950000D01*
X94770000Y-99950000D02*
X97430000Y-99950000D01*
X134870000Y-94570000D02*
X136200000Y-94570000D01*
X134870000Y-95900000D02*
X134870000Y-94570000D01*
X137470000Y-94570000D02*
X140070000Y-94570000D01*
X137470000Y-97170000D02*
X137470000Y-94570000D01*
X134870000Y-97170000D02*
X137470000Y-97170000D01*
X140070000Y-94570000D02*
X140070000Y-102310000D01*
X134870000Y-97170000D02*
X134870000Y-102310000D01*
X134870000Y-102310000D02*
X140070000Y-102310000D01*
X98710000Y-106680000D02*
X98710000Y-106836000D01*
X98710000Y-104364000D02*
X98710000Y-104520000D01*
X101311130Y-106679837D02*
G75*
G02X99229039Y-106680000I-1041130J1079837D01*
G01*
X101311130Y-104520163D02*
G75*
G03X99229039Y-104520000I-1041130J-1079837D01*
G01*
X101942335Y-106678608D02*
G75*
G02X98710000Y-106835516I-1672335J1078608D01*
G01*
X101942335Y-104521392D02*
G75*
G03X98710000Y-104364484I-1672335J-1078608D01*
G01*
X90820000Y-91120000D02*
X88580000Y-91120000D01*
X90820000Y-83880000D02*
X88580000Y-83880000D01*
X88580000Y-83880000D02*
X88580000Y-91120000D01*
X90820000Y-83880000D02*
X90820000Y-91120000D01*
X82820000Y-91120000D02*
X80580000Y-91120000D01*
X82820000Y-83880000D02*
X80580000Y-83880000D01*
X80580000Y-83880000D02*
X80580000Y-91120000D01*
X82820000Y-83880000D02*
X82820000Y-91120000D01*
X142720000Y-92320000D02*
X140480000Y-92320000D01*
X142720000Y-85080000D02*
X140480000Y-85080000D01*
X140480000Y-85080000D02*
X140480000Y-92320000D01*
X142720000Y-85080000D02*
X142720000Y-92320000D01*
X138220000Y-90080000D02*
X138220000Y-92320000D01*
X130980000Y-90080000D02*
X130980000Y-92320000D01*
X130980000Y-92320000D02*
X138220000Y-92320000D01*
X130980000Y-90080000D02*
X138220000Y-90080000D01*
X138220000Y-85180000D02*
X138220000Y-87420000D01*
X130980000Y-85180000D02*
X130980000Y-87420000D01*
X130980000Y-87420000D02*
X138220000Y-87420000D01*
X130980000Y-85180000D02*
X138220000Y-85180000D01*
X107819801Y-99295000D02*
X107819801Y-98895000D01*
X108019801Y-99095000D02*
X107619801Y-99095000D01*
X103669000Y-98270000D02*
X103669000Y-97530000D01*
X103709000Y-98437000D02*
X103709000Y-97363000D01*
X103749000Y-98564000D02*
X103749000Y-97236000D01*
X103789000Y-98668000D02*
X103789000Y-97132000D01*
X103829000Y-98759000D02*
X103829000Y-97041000D01*
X103869000Y-98840000D02*
X103869000Y-96960000D01*
X103909000Y-98913000D02*
X103909000Y-96887000D01*
X103949000Y-98980000D02*
X103949000Y-96820000D01*
X103989000Y-99042000D02*
X103989000Y-96758000D01*
X104029000Y-99100000D02*
X104029000Y-96700000D01*
X104069000Y-99154000D02*
X104069000Y-96646000D01*
X104109000Y-99204000D02*
X104109000Y-96596000D01*
X104149000Y-99251000D02*
X104149000Y-96549000D01*
X104189000Y-97060000D02*
X104189000Y-96504000D01*
X104189000Y-99296000D02*
X104189000Y-98740000D01*
X104229000Y-97060000D02*
X104229000Y-96462000D01*
X104229000Y-99338000D02*
X104229000Y-98740000D01*
X104269000Y-97060000D02*
X104269000Y-96422000D01*
X104269000Y-99378000D02*
X104269000Y-98740000D01*
X104309000Y-97060000D02*
X104309000Y-96384000D01*
X104309000Y-99416000D02*
X104309000Y-98740000D01*
X104349000Y-97060000D02*
X104349000Y-96348000D01*
X104349000Y-99452000D02*
X104349000Y-98740000D01*
X104389000Y-97060000D02*
X104389000Y-96313000D01*
X104389000Y-99487000D02*
X104389000Y-98740000D01*
X104429000Y-97060000D02*
X104429000Y-96281000D01*
X104429000Y-99519000D02*
X104429000Y-98740000D01*
X104469000Y-97060000D02*
X104469000Y-96250000D01*
X104469000Y-99550000D02*
X104469000Y-98740000D01*
X104509000Y-97060000D02*
X104509000Y-96220000D01*
X104509000Y-99580000D02*
X104509000Y-98740000D01*
X104549000Y-97060000D02*
X104549000Y-96192000D01*
X104549000Y-99608000D02*
X104549000Y-98740000D01*
X104589000Y-97060000D02*
X104589000Y-96165000D01*
X104589000Y-99635000D02*
X104589000Y-98740000D01*
X104629000Y-97060000D02*
X104629000Y-96140000D01*
X104629000Y-99660000D02*
X104629000Y-98740000D01*
X104669000Y-97060000D02*
X104669000Y-96115000D01*
X104669000Y-99685000D02*
X104669000Y-98740000D01*
X104709000Y-97060000D02*
X104709000Y-96092000D01*
X104709000Y-99708000D02*
X104709000Y-98740000D01*
X104749000Y-97060000D02*
X104749000Y-96070000D01*
X104749000Y-99730000D02*
X104749000Y-98740000D01*
X104789000Y-97060000D02*
X104789000Y-96049000D01*
X104789000Y-99751000D02*
X104789000Y-98740000D01*
X104829000Y-97060000D02*
X104829000Y-96030000D01*
X104829000Y-99770000D02*
X104829000Y-98740000D01*
X104869000Y-97060000D02*
X104869000Y-96011000D01*
X104869000Y-99789000D02*
X104869000Y-98740000D01*
X104909000Y-97060000D02*
X104909000Y-95993000D01*
X104909000Y-99807000D02*
X104909000Y-98740000D01*
X104949000Y-97060000D02*
X104949000Y-95976000D01*
X104949000Y-99824000D02*
X104949000Y-98740000D01*
X104989000Y-97060000D02*
X104989000Y-95960000D01*
X104989000Y-99840000D02*
X104989000Y-98740000D01*
X105029000Y-97060000D02*
X105029000Y-95946000D01*
X105029000Y-99854000D02*
X105029000Y-98740000D01*
X105070000Y-97060000D02*
X105070000Y-95932000D01*
X105070000Y-99868000D02*
X105070000Y-98740000D01*
X105110000Y-97060000D02*
X105110000Y-95918000D01*
X105110000Y-99882000D02*
X105110000Y-98740000D01*
X105150000Y-97060000D02*
X105150000Y-95906000D01*
X105150000Y-99894000D02*
X105150000Y-98740000D01*
X105190000Y-97060000D02*
X105190000Y-95895000D01*
X105190000Y-99905000D02*
X105190000Y-98740000D01*
X105230000Y-97060000D02*
X105230000Y-95884000D01*
X105230000Y-99916000D02*
X105230000Y-98740000D01*
X105270000Y-97060000D02*
X105270000Y-95875000D01*
X105270000Y-99925000D02*
X105270000Y-98740000D01*
X105310000Y-97060000D02*
X105310000Y-95866000D01*
X105310000Y-99934000D02*
X105310000Y-98740000D01*
X105350000Y-97060000D02*
X105350000Y-95858000D01*
X105350000Y-99942000D02*
X105350000Y-98740000D01*
X105390000Y-97060000D02*
X105390000Y-95850000D01*
X105390000Y-99950000D02*
X105390000Y-98740000D01*
X105430000Y-97060000D02*
X105430000Y-95844000D01*
X105430000Y-99956000D02*
X105430000Y-98740000D01*
X105470000Y-97060000D02*
X105470000Y-95838000D01*
X105470000Y-99962000D02*
X105470000Y-98740000D01*
X105510000Y-97060000D02*
X105510000Y-95833000D01*
X105510000Y-99967000D02*
X105510000Y-98740000D01*
X105550000Y-97060000D02*
X105550000Y-95829000D01*
X105550000Y-99971000D02*
X105550000Y-98740000D01*
X105590000Y-97060000D02*
X105590000Y-95826000D01*
X105590000Y-99974000D02*
X105590000Y-98740000D01*
X105630000Y-97060000D02*
X105630000Y-95823000D01*
X105630000Y-99977000D02*
X105630000Y-98740000D01*
X105670000Y-99979000D02*
X105670000Y-98740000D01*
X105670000Y-97060000D02*
X105670000Y-95821000D01*
X105710000Y-99980000D02*
X105710000Y-98740000D01*
X105710000Y-97060000D02*
X105710000Y-95820000D01*
X105750000Y-99980000D02*
X105750000Y-98740000D01*
X105750000Y-97060000D02*
X105750000Y-95820000D01*
X107870000Y-97900000D02*
G75*
G03X107870000Y-97900000I-2120000J0D01*
G01*
X107819801Y-94395000D02*
X107819801Y-93995000D01*
X108019801Y-94195000D02*
X107619801Y-94195000D01*
X103669000Y-93370000D02*
X103669000Y-92630000D01*
X103709000Y-93537000D02*
X103709000Y-92463000D01*
X103749000Y-93664000D02*
X103749000Y-92336000D01*
X103789000Y-93768000D02*
X103789000Y-92232000D01*
X103829000Y-93859000D02*
X103829000Y-92141000D01*
X103869000Y-93940000D02*
X103869000Y-92060000D01*
X103909000Y-94013000D02*
X103909000Y-91987000D01*
X103949000Y-94080000D02*
X103949000Y-91920000D01*
X103989000Y-94142000D02*
X103989000Y-91858000D01*
X104029000Y-94200000D02*
X104029000Y-91800000D01*
X104069000Y-94254000D02*
X104069000Y-91746000D01*
X104109000Y-94304000D02*
X104109000Y-91696000D01*
X104149000Y-94351000D02*
X104149000Y-91649000D01*
X104189000Y-92160000D02*
X104189000Y-91604000D01*
X104189000Y-94396000D02*
X104189000Y-93840000D01*
X104229000Y-92160000D02*
X104229000Y-91562000D01*
X104229000Y-94438000D02*
X104229000Y-93840000D01*
X104269000Y-92160000D02*
X104269000Y-91522000D01*
X104269000Y-94478000D02*
X104269000Y-93840000D01*
X104309000Y-92160000D02*
X104309000Y-91484000D01*
X104309000Y-94516000D02*
X104309000Y-93840000D01*
X104349000Y-92160000D02*
X104349000Y-91448000D01*
X104349000Y-94552000D02*
X104349000Y-93840000D01*
X104389000Y-92160000D02*
X104389000Y-91413000D01*
X104389000Y-94587000D02*
X104389000Y-93840000D01*
X104429000Y-92160000D02*
X104429000Y-91381000D01*
X104429000Y-94619000D02*
X104429000Y-93840000D01*
X104469000Y-92160000D02*
X104469000Y-91350000D01*
X104469000Y-94650000D02*
X104469000Y-93840000D01*
X104509000Y-92160000D02*
X104509000Y-91320000D01*
X104509000Y-94680000D02*
X104509000Y-93840000D01*
X104549000Y-92160000D02*
X104549000Y-91292000D01*
X104549000Y-94708000D02*
X104549000Y-93840000D01*
X104589000Y-92160000D02*
X104589000Y-91265000D01*
X104589000Y-94735000D02*
X104589000Y-93840000D01*
X104629000Y-92160000D02*
X104629000Y-91240000D01*
X104629000Y-94760000D02*
X104629000Y-93840000D01*
X104669000Y-92160000D02*
X104669000Y-91215000D01*
X104669000Y-94785000D02*
X104669000Y-93840000D01*
X104709000Y-92160000D02*
X104709000Y-91192000D01*
X104709000Y-94808000D02*
X104709000Y-93840000D01*
X104749000Y-92160000D02*
X104749000Y-91170000D01*
X104749000Y-94830000D02*
X104749000Y-93840000D01*
X104789000Y-92160000D02*
X104789000Y-91149000D01*
X104789000Y-94851000D02*
X104789000Y-93840000D01*
X104829000Y-92160000D02*
X104829000Y-91130000D01*
X104829000Y-94870000D02*
X104829000Y-93840000D01*
X104869000Y-92160000D02*
X104869000Y-91111000D01*
X104869000Y-94889000D02*
X104869000Y-93840000D01*
X104909000Y-92160000D02*
X104909000Y-91093000D01*
X104909000Y-94907000D02*
X104909000Y-93840000D01*
X104949000Y-92160000D02*
X104949000Y-91076000D01*
X104949000Y-94924000D02*
X104949000Y-93840000D01*
X104989000Y-92160000D02*
X104989000Y-91060000D01*
X104989000Y-94940000D02*
X104989000Y-93840000D01*
X105029000Y-92160000D02*
X105029000Y-91046000D01*
X105029000Y-94954000D02*
X105029000Y-93840000D01*
X105070000Y-92160000D02*
X105070000Y-91032000D01*
X105070000Y-94968000D02*
X105070000Y-93840000D01*
X105110000Y-92160000D02*
X105110000Y-91018000D01*
X105110000Y-94982000D02*
X105110000Y-93840000D01*
X105150000Y-92160000D02*
X105150000Y-91006000D01*
X105150000Y-94994000D02*
X105150000Y-93840000D01*
X105190000Y-92160000D02*
X105190000Y-90995000D01*
X105190000Y-95005000D02*
X105190000Y-93840000D01*
X105230000Y-92160000D02*
X105230000Y-90984000D01*
X105230000Y-95016000D02*
X105230000Y-93840000D01*
X105270000Y-92160000D02*
X105270000Y-90975000D01*
X105270000Y-95025000D02*
X105270000Y-93840000D01*
X105310000Y-92160000D02*
X105310000Y-90966000D01*
X105310000Y-95034000D02*
X105310000Y-93840000D01*
X105350000Y-92160000D02*
X105350000Y-90958000D01*
X105350000Y-95042000D02*
X105350000Y-93840000D01*
X105390000Y-92160000D02*
X105390000Y-90950000D01*
X105390000Y-95050000D02*
X105390000Y-93840000D01*
X105430000Y-92160000D02*
X105430000Y-90944000D01*
X105430000Y-95056000D02*
X105430000Y-93840000D01*
X105470000Y-92160000D02*
X105470000Y-90938000D01*
X105470000Y-95062000D02*
X105470000Y-93840000D01*
X105510000Y-92160000D02*
X105510000Y-90933000D01*
X105510000Y-95067000D02*
X105510000Y-93840000D01*
X105550000Y-92160000D02*
X105550000Y-90929000D01*
X105550000Y-95071000D02*
X105550000Y-93840000D01*
X105590000Y-92160000D02*
X105590000Y-90926000D01*
X105590000Y-95074000D02*
X105590000Y-93840000D01*
X105630000Y-92160000D02*
X105630000Y-90923000D01*
X105630000Y-95077000D02*
X105630000Y-93840000D01*
X105670000Y-95079000D02*
X105670000Y-93840000D01*
X105670000Y-92160000D02*
X105670000Y-90921000D01*
X105710000Y-95080000D02*
X105710000Y-93840000D01*
X105710000Y-92160000D02*
X105710000Y-90920000D01*
X105750000Y-95080000D02*
X105750000Y-93840000D01*
X105750000Y-92160000D02*
X105750000Y-90920000D01*
X107870000Y-93000000D02*
G75*
G03X107870000Y-93000000I-2120000J0D01*
G01*
X111175000Y-98565000D02*
G75*
G03X116225000Y-98565000I2525000J0D01*
G01*
X111175000Y-92315000D02*
G75*
G02X116225000Y-92315000I2525000J0D01*
G01*
X111175000Y-92315000D02*
X111175000Y-98565000D01*
X116225000Y-92315000D02*
X116225000Y-98565000D01*
X87491000Y-76130000D02*
X87491000Y-77640000D01*
X83790000Y-76130000D02*
X83790000Y-77640000D01*
X80520000Y-77640000D02*
X90760000Y-77640000D01*
X90760000Y-76130000D02*
X90760000Y-80771000D01*
X80520000Y-76130000D02*
X80520000Y-80771000D01*
X80520000Y-80771000D02*
X90760000Y-80771000D01*
X80520000Y-76130000D02*
X90760000Y-76130000D01*
X108440000Y-86630000D02*
X110090000Y-86630000D01*
X108440000Y-76350000D02*
X108440000Y-86630000D01*
X113740000Y-76350000D02*
X108440000Y-76350000D01*
X113740000Y-86630000D02*
X113740000Y-76350000D01*
X112090000Y-86630000D02*
X113740000Y-86630000D01*
X110090000Y-86630000D02*
G75*
G02X112090000Y-86630000I1000000J0D01*
G01*
X135333333Y-79585000D02*
X135333333Y-80855000D01*
X133980000Y-80785000D02*
X135333333Y-80785000D01*
X133980000Y-80665000D02*
X135333333Y-80665000D01*
X133980000Y-80545000D02*
X135333333Y-80545000D01*
X133980000Y-80425000D02*
X135333333Y-80425000D01*
X133980000Y-80305000D02*
X135333333Y-80305000D01*
X133980000Y-80185000D02*
X135333333Y-80185000D01*
X133980000Y-80065000D02*
X135333333Y-80065000D01*
X133980000Y-79945000D02*
X135333333Y-79945000D01*
X133980000Y-79825000D02*
X135333333Y-79825000D01*
X133980000Y-79705000D02*
X135333333Y-79705000D01*
X138040000Y-79585000D02*
X133980000Y-79585000D01*
X138040000Y-80855000D02*
X138040000Y-79585000D01*
X133980000Y-80855000D02*
X138040000Y-80855000D01*
X133980000Y-79585000D02*
X133980000Y-80855000D01*
X135333333Y-77045000D02*
X135333333Y-78315000D01*
X133980000Y-78245000D02*
X135333333Y-78245000D01*
X133980000Y-78125000D02*
X135333333Y-78125000D01*
X133980000Y-78005000D02*
X135333333Y-78005000D01*
X133980000Y-77885000D02*
X135333333Y-77885000D01*
X133980000Y-77765000D02*
X135333333Y-77765000D01*
X133980000Y-77645000D02*
X135333333Y-77645000D01*
X133980000Y-77525000D02*
X135333333Y-77525000D01*
X133980000Y-77405000D02*
X135333333Y-77405000D01*
X133980000Y-77285000D02*
X135333333Y-77285000D01*
X133980000Y-77165000D02*
X135333333Y-77165000D01*
X138040000Y-77045000D02*
X133980000Y-77045000D01*
X138040000Y-78315000D02*
X138040000Y-77045000D01*
X133980000Y-78315000D02*
X138040000Y-78315000D01*
X133980000Y-77045000D02*
X133980000Y-78315000D01*
X135333333Y-74505000D02*
X135333333Y-75775000D01*
X133980000Y-75705000D02*
X135333333Y-75705000D01*
X133980000Y-75585000D02*
X135333333Y-75585000D01*
X133980000Y-75465000D02*
X135333333Y-75465000D01*
X133980000Y-75345000D02*
X135333333Y-75345000D01*
X133980000Y-75225000D02*
X135333333Y-75225000D01*
X133980000Y-75105000D02*
X135333333Y-75105000D01*
X133980000Y-74985000D02*
X135333333Y-74985000D01*
X133980000Y-74865000D02*
X135333333Y-74865000D01*
X133980000Y-74745000D02*
X135333333Y-74745000D01*
X133980000Y-74625000D02*
X135333333Y-74625000D01*
X138040000Y-74505000D02*
X133980000Y-74505000D01*
X138040000Y-75775000D02*
X138040000Y-74505000D01*
X133980000Y-75775000D02*
X138040000Y-75775000D01*
X133980000Y-74505000D02*
X133980000Y-75775000D01*
X135333333Y-71965000D02*
X135333333Y-73235000D01*
X133980000Y-73165000D02*
X135333333Y-73165000D01*
X133980000Y-73045000D02*
X135333333Y-73045000D01*
X133980000Y-72925000D02*
X135333333Y-72925000D01*
X133980000Y-72805000D02*
X135333333Y-72805000D01*
X133980000Y-72685000D02*
X135333333Y-72685000D01*
X133980000Y-72565000D02*
X135333333Y-72565000D01*
X133980000Y-72445000D02*
X135333333Y-72445000D01*
X133980000Y-72325000D02*
X135333333Y-72325000D01*
X133980000Y-72205000D02*
X135333333Y-72205000D01*
X133980000Y-72085000D02*
X135333333Y-72085000D01*
X138040000Y-71965000D02*
X133980000Y-71965000D01*
X138040000Y-73235000D02*
X138040000Y-71965000D01*
X133980000Y-73235000D02*
X138040000Y-73235000D01*
X133980000Y-71965000D02*
X133980000Y-73235000D01*
X130820000Y-69940000D02*
X130820000Y-71323000D01*
X130820000Y-69940000D02*
X132204000Y-69940000D01*
X140960000Y-70180000D02*
X140960000Y-82640000D01*
X131060000Y-70180000D02*
X131060000Y-82640000D01*
X131060000Y-82640000D02*
X140960000Y-82640000D01*
X131060000Y-70180000D02*
X140960000Y-70180000D01*
X107750000Y-69600000D02*
X107750000Y-71100000D01*
X109000000Y-73600000D02*
X113500000Y-73600000D01*
X114750000Y-71100000D02*
X114750000Y-69600000D01*
X113500000Y-67100000D02*
X109000000Y-67100000D01*
M02*
